G04*
G04 #@! TF.GenerationSoftware,Altium Limited,Altium Designer,22.3.1 (43)*
G04*
G04 Layer_Color=8388736*
%FSLAX25Y25*%
%MOIN*%
G70*
G04*
G04 #@! TF.SameCoordinates,8BB9F333-D91B-4341-8B3B-76DA7BD7A395*
G04*
G04*
G04 #@! TF.FilePolarity,Negative*
G04*
G01*
G75*
%ADD23R,0.06500X0.15000*%
%ADD28R,0.03150X0.01378*%
%ADD29R,0.01378X0.03347*%
%ADD30R,0.01181X0.04724*%
%ADD31R,0.04724X0.01181*%
%ADD32R,0.04331X0.02362*%
%ADD33R,0.04937X0.04543*%
%ADD34R,0.03165X0.07693*%
%ADD35R,0.03362X0.02969*%
%ADD36R,0.08500X0.05300*%
%ADD37R,0.02969X0.03362*%
%ADD38R,0.05528X0.04150*%
%ADD39R,0.07102X0.06906*%
%ADD40R,0.06315X0.02575*%
%ADD41R,0.03756X0.03362*%
%ADD42R,0.03362X0.03756*%
%ADD43C,0.06906*%
%ADD44R,0.06906X0.06906*%
%ADD45O,0.07102X0.04051*%
%ADD46O,0.03559X0.06118*%
%ADD47C,0.03000*%
%ADD48C,0.05724*%
G36*
X103745Y105280D02*
Y99768D01*
X103742Y99665D01*
X103734Y99562D01*
X103721Y99460D01*
X103702Y99358D01*
X103678Y99258D01*
X103648Y99159D01*
X103614Y99062D01*
X103575Y98967D01*
X103530Y98874D01*
X103481Y98783D01*
X103427Y98696D01*
X103369Y98611D01*
X103306Y98529D01*
X103239Y98450D01*
X103168Y98376D01*
X103094Y98305D01*
X103015Y98238D01*
X102933Y98175D01*
X102848Y98117D01*
X102761Y98063D01*
X102670Y98014D01*
X102577Y97969D01*
X102482Y97930D01*
X102385Y97896D01*
X102286Y97866D01*
X102186Y97842D01*
X102084Y97824D01*
X101982Y97810D01*
X101879Y97802D01*
X101776Y97799D01*
X98824D01*
X98721Y97802D01*
X98618Y97810D01*
X98516Y97824D01*
X98414Y97842D01*
X98314Y97866D01*
X98215Y97896D01*
X98118Y97930D01*
X98023Y97969D01*
X97930Y98014D01*
X97839Y98063D01*
X97751Y98117D01*
X97667Y98175D01*
X97585Y98238D01*
X97506Y98305D01*
X97432Y98376D01*
X97361Y98450D01*
X97294Y98529D01*
X97231Y98611D01*
X97173Y98696D01*
X97119Y98783D01*
X97070Y98874D01*
X97025Y98967D01*
X96986Y99062D01*
X96952Y99159D01*
X96922Y99258D01*
X96898Y99358D01*
X96879Y99460D01*
X96866Y99562D01*
X96858Y99665D01*
X96855Y99768D01*
Y105280D01*
X103745D01*
D02*
G37*
G36*
X96858Y128217D02*
X96866Y128320D01*
X96879Y128422D01*
X96898Y128524D01*
X96922Y128624D01*
X96952Y128723D01*
X96986Y128820D01*
X97025Y128915D01*
X97070Y129008D01*
X97119Y129098D01*
X97173Y129186D01*
X97231Y129271D01*
X97294Y129353D01*
X97361Y129431D01*
X97432Y129506D01*
X97506Y129577D01*
X97585Y129644D01*
X97667Y129707D01*
X97751Y129765D01*
X97839Y129819D01*
X97930Y129868D01*
X98023Y129912D01*
X98118Y129952D01*
X98215Y129986D01*
X98314Y130016D01*
X98414Y130040D01*
X98516Y130058D01*
X98618Y130072D01*
X98721Y130080D01*
X98824Y130083D01*
X101776D01*
X101879Y130080D01*
X101982Y130072D01*
X102084Y130058D01*
X102186Y130040D01*
X102286Y130016D01*
X102385Y129986D01*
X102482Y129952D01*
X102577Y129912D01*
X102670Y129868D01*
X102761Y129819D01*
X102848Y129765D01*
X102933Y129707D01*
X103015Y129644D01*
X103094Y129577D01*
X103168Y129506D01*
X103239Y129431D01*
X103306Y129353D01*
X103369Y129271D01*
X103427Y129186D01*
X103481Y129098D01*
X103530Y129008D01*
X103575Y128915D01*
X103614Y128820D01*
X103648Y128723D01*
X103678Y128624D01*
X103702Y128524D01*
X103721Y128422D01*
X103734Y128320D01*
X103742Y128217D01*
X103745Y128114D01*
Y122602D01*
X96855D01*
Y128114D01*
X96858Y128217D01*
D02*
G37*
D23*
X68000Y35122D02*
D03*
X58000D02*
D03*
X48000D02*
D03*
X38000D02*
D03*
D28*
X6229Y96693D02*
D03*
Y94725D02*
D03*
Y92756D02*
D03*
Y90788D02*
D03*
Y88819D02*
D03*
Y86851D02*
D03*
X21929D02*
D03*
Y88819D02*
D03*
Y90788D02*
D03*
Y92756D02*
D03*
Y94725D02*
D03*
Y96693D02*
D03*
D29*
X9157Y83922D02*
D03*
X11126D02*
D03*
X13094D02*
D03*
X15063D02*
D03*
X17031D02*
D03*
X19000D02*
D03*
Y99622D02*
D03*
X17031D02*
D03*
X15063D02*
D03*
X13094D02*
D03*
X11126D02*
D03*
X9157D02*
D03*
D30*
X63827Y61890D02*
D03*
X61858D02*
D03*
X59890D02*
D03*
X57921D02*
D03*
X55953D02*
D03*
X53984D02*
D03*
X52016D02*
D03*
X50047D02*
D03*
X48079D02*
D03*
X46110D02*
D03*
X44142D02*
D03*
X42173D02*
D03*
Y95354D02*
D03*
X44142D02*
D03*
X46110D02*
D03*
X48079D02*
D03*
X50047D02*
D03*
X52016D02*
D03*
X53984D02*
D03*
X55953D02*
D03*
X57921D02*
D03*
X59890D02*
D03*
X61858D02*
D03*
X63827D02*
D03*
D31*
X36268Y67795D02*
D03*
Y69764D02*
D03*
Y71732D02*
D03*
Y73701D02*
D03*
Y75669D02*
D03*
Y77638D02*
D03*
Y79606D02*
D03*
Y81575D02*
D03*
Y83543D02*
D03*
Y85512D02*
D03*
Y87480D02*
D03*
Y89449D02*
D03*
X69732D02*
D03*
Y87480D02*
D03*
Y85512D02*
D03*
Y83543D02*
D03*
Y81575D02*
D03*
Y79606D02*
D03*
Y77638D02*
D03*
Y75669D02*
D03*
Y73701D02*
D03*
Y71732D02*
D03*
Y69764D02*
D03*
Y67795D02*
D03*
D32*
X66988Y113740D02*
D03*
Y110000D02*
D03*
Y106260D02*
D03*
X78012D02*
D03*
Y113740D02*
D03*
D33*
X101878Y33551D02*
D03*
X95583D02*
D03*
Y49693D02*
D03*
X101878D02*
D03*
D34*
X93122Y41622D02*
D03*
D35*
X57968Y116500D02*
D03*
X54031D02*
D03*
X24969Y79000D02*
D03*
X21032D02*
D03*
X44969Y47000D02*
D03*
X41032D02*
D03*
X54969D02*
D03*
X51032D02*
D03*
X12032Y64500D02*
D03*
X15969D02*
D03*
X70410Y100500D02*
D03*
X74347D02*
D03*
X54031Y101500D02*
D03*
X57968D02*
D03*
X54031Y106500D02*
D03*
X57968D02*
D03*
X70410Y95500D02*
D03*
X74347D02*
D03*
X57968Y111500D02*
D03*
X54031D02*
D03*
X61032Y47000D02*
D03*
X64969D02*
D03*
X86032Y53000D02*
D03*
X89969D02*
D03*
X38032Y101500D02*
D03*
X41969D02*
D03*
X63968Y56500D02*
D03*
X60031D02*
D03*
X7032Y79000D02*
D03*
X10968D02*
D03*
D36*
X94500Y80522D02*
D03*
Y70722D02*
D03*
D37*
X81500Y73654D02*
D03*
Y77591D02*
D03*
X86500Y73654D02*
D03*
Y77591D02*
D03*
X11000Y119032D02*
D03*
Y122968D02*
D03*
X102500Y78031D02*
D03*
Y81968D02*
D03*
Y72969D02*
D03*
Y69032D02*
D03*
X29000Y66531D02*
D03*
Y70468D02*
D03*
X76000Y67968D02*
D03*
Y64031D02*
D03*
X76500Y86568D02*
D03*
Y82631D02*
D03*
X81500Y86568D02*
D03*
Y82631D02*
D03*
X26500Y100937D02*
D03*
Y97000D02*
D03*
X16000Y78469D02*
D03*
Y74532D02*
D03*
X26500Y91000D02*
D03*
Y87063D02*
D03*
X79500Y100268D02*
D03*
Y96332D02*
D03*
X78000Y119532D02*
D03*
Y123468D02*
D03*
D38*
X85929Y43500D02*
D03*
X77071Y39760D02*
D03*
Y47240D02*
D03*
D39*
X100300Y117878D02*
D03*
Y110004D02*
D03*
D40*
X89670Y119059D02*
D03*
Y116500D02*
D03*
Y113941D02*
D03*
Y111382D02*
D03*
Y108823D02*
D03*
D41*
X22500Y124500D02*
D03*
D42*
X28209D02*
D03*
Y118595D02*
D03*
Y112689D02*
D03*
X16791D02*
D03*
Y118595D02*
D03*
Y124500D02*
D03*
D43*
X68000Y124622D02*
D03*
X58000D02*
D03*
X48000D02*
D03*
X84500Y61000D02*
D03*
D44*
X38000Y124622D02*
D03*
X94500Y61000D02*
D03*
D45*
X100300Y127720D02*
D03*
Y100161D02*
D03*
D46*
X89670Y123784D02*
D03*
Y104098D02*
D03*
D47*
X19500Y60500D02*
D03*
D48*
X99299Y150480D02*
D03*
X7000Y7000D02*
D03*
M02*
