G04*
G04 #@! TF.GenerationSoftware,Altium Limited,Altium Designer,22.3.1 (43)*
G04*
G04 Layer_Physical_Order=2*
G04 Layer_Color=36540*
%FSLAX25Y25*%
%MOIN*%
G70*
G04*
G04 #@! TF.SameCoordinates,8BB9F333-D91B-4341-8B3B-76DA7BD7A395*
G04*
G04*
G04 #@! TF.FilePolarity,Positive*
G04*
G01*
G75*
%ADD11C,0.01000*%
%ADD54O,0.06102X0.03051*%
%ADD55O,0.02559X0.05118*%
%ADD56C,0.02000*%
%ADD57C,0.04724*%
G36*
X98367Y155943D02*
Y155943D01*
X98367Y155943D01*
X99368Y155844D01*
X100561Y155482D01*
X101661Y154895D01*
X102624Y154104D01*
X103416Y153140D01*
X104003Y152040D01*
X104365Y150847D01*
X104487Y149606D01*
X104464Y149366D01*
X104464D01*
X104464Y149366D01*
X104472Y149175D01*
Y128372D01*
X104275Y128353D01*
X104205Y128706D01*
X103646Y129541D01*
X102811Y130099D01*
X101826Y130296D01*
X101300D01*
Y127720D01*
Y125145D01*
X101826D01*
X102811Y125341D01*
X103646Y125900D01*
X104205Y126735D01*
X104275Y127088D01*
X104472Y127069D01*
Y100813D01*
X104275Y100794D01*
X104205Y101147D01*
X103646Y101982D01*
X102811Y102541D01*
X101826Y102736D01*
X101300D01*
Y100161D01*
Y97586D01*
X101826D01*
X102811Y97782D01*
X103646Y98341D01*
X104205Y99176D01*
X104275Y99529D01*
X104472Y99510D01*
Y7739D01*
X104472Y7739D01*
X104475Y7723D01*
X104468Y7528D01*
X104363Y6460D01*
X104014Y5309D01*
X103447Y4248D01*
X102683Y3318D01*
X101753Y2554D01*
X100692Y1987D01*
X99541Y1638D01*
X98430Y1529D01*
X98425Y1529D01*
X8070D01*
X8068Y1529D01*
X7874Y1529D01*
X7681Y1538D01*
X6634Y1641D01*
X5442Y2003D01*
X4344Y2590D01*
X3381Y3381D01*
X2590Y4344D01*
X2003Y5442D01*
X1641Y6634D01*
X1538Y7681D01*
X1529Y7874D01*
X1529Y7874D01*
X1529Y8068D01*
Y36192D01*
X1693Y36302D01*
X2102Y36132D01*
X2898D01*
X3633Y36437D01*
X4196Y36999D01*
X4500Y37734D01*
Y38530D01*
X4196Y39265D01*
X3633Y39828D01*
X2898Y40132D01*
X2102D01*
X1693Y39963D01*
X1529Y40072D01*
Y62560D01*
X1693Y62669D01*
X2102Y62500D01*
X2898D01*
X3633Y62805D01*
X4196Y63367D01*
X4500Y64102D01*
Y64898D01*
X4196Y65633D01*
X3633Y66195D01*
X2898Y66500D01*
X2102D01*
X1693Y66330D01*
X1529Y66440D01*
Y149411D01*
X1529Y149412D01*
X1529Y149606D01*
X1538Y149799D01*
X1641Y150846D01*
X2003Y152038D01*
X2590Y153137D01*
X3381Y154100D01*
X4344Y154890D01*
X5442Y155477D01*
X6634Y155839D01*
X7681Y155942D01*
X7874Y155951D01*
Y155951D01*
X7874Y155951D01*
X98359D01*
X98367Y155943D01*
D02*
G37*
%LPC*%
G36*
X90551Y147216D02*
Y147199D01*
X15748D01*
Y147216D01*
X14329Y147029D01*
X13006Y146482D01*
X11870Y145610D01*
X10999Y144474D01*
X10451Y143152D01*
X10264Y141732D01*
X10451Y140313D01*
X10999Y138990D01*
X11870Y137855D01*
X13006Y136983D01*
X14329Y136435D01*
X15748Y136248D01*
Y136266D01*
X51560D01*
X51670Y136102D01*
X51500Y135693D01*
Y134897D01*
X51805Y134162D01*
X52367Y133600D01*
X53102Y133295D01*
X53898D01*
X54633Y133600D01*
X55195Y134162D01*
X55500Y134897D01*
Y135693D01*
X55330Y136102D01*
X55440Y136266D01*
X60560D01*
X60669Y136102D01*
X60500Y135693D01*
Y134897D01*
X60804Y134162D01*
X61367Y133600D01*
X62102Y133295D01*
X62898D01*
X63633Y133600D01*
X64196Y134162D01*
X64500Y134897D01*
Y135693D01*
X64331Y136102D01*
X64440Y136266D01*
X73060D01*
X73169Y136102D01*
X73000Y135693D01*
Y134897D01*
X73304Y134162D01*
X73867Y133600D01*
X74602Y133295D01*
X75398D01*
X76133Y133600D01*
X76696Y134162D01*
X77000Y134897D01*
Y135693D01*
X76831Y136102D01*
X76940Y136266D01*
X90551D01*
Y136248D01*
X91970Y136435D01*
X93293Y136983D01*
X94429Y137855D01*
X95300Y138990D01*
X95848Y140313D01*
X96035Y141732D01*
X95848Y143152D01*
X95300Y144474D01*
X94429Y145610D01*
X93293Y146482D01*
X91970Y147029D01*
X90551Y147216D01*
D02*
G37*
G36*
X27898Y134500D02*
X27102D01*
X26367Y134195D01*
X25804Y133633D01*
X25500Y132898D01*
Y132102D01*
X25804Y131367D01*
X26367Y130805D01*
X27102Y130500D01*
X27898D01*
X28633Y130805D01*
X29195Y131367D01*
X29500Y132102D01*
Y132898D01*
X29195Y133633D01*
X28633Y134195D01*
X27898Y134500D01*
D02*
G37*
G36*
X99300Y130296D02*
X98774D01*
X97789Y130099D01*
X96954Y129541D01*
X96405Y128720D01*
X99300D01*
Y130296D01*
D02*
G37*
G36*
Y126720D02*
X96405D01*
X96954Y125900D01*
X97789Y125341D01*
X98774Y125145D01*
X99300D01*
Y126720D01*
D02*
G37*
G36*
X90670Y127136D02*
Y124784D01*
X91994D01*
Y125063D01*
X91817Y125952D01*
X91313Y126706D01*
X90670Y127136D01*
D02*
G37*
G36*
X88670Y127136D02*
X88027Y126706D01*
X87523Y125952D01*
X87346Y125063D01*
Y124784D01*
X88670D01*
Y127136D01*
D02*
G37*
G36*
X58520Y128575D02*
X57480D01*
X56474Y128305D01*
X55573Y127785D01*
X54837Y127049D01*
X54317Y126148D01*
X54047Y125142D01*
Y124102D01*
X54317Y123096D01*
X54837Y122195D01*
X55573Y121459D01*
X56474Y120939D01*
X57480Y120669D01*
X58520D01*
X59526Y120939D01*
X60427Y121459D01*
X61163Y122195D01*
X61683Y123096D01*
X61953Y124102D01*
Y125142D01*
X61683Y126148D01*
X61163Y127049D01*
X60427Y127785D01*
X59526Y128305D01*
X58520Y128575D01*
D02*
G37*
G36*
X48520D02*
X47480D01*
X46474Y128305D01*
X45573Y127785D01*
X44837Y127049D01*
X44317Y126148D01*
X44047Y125142D01*
Y124102D01*
X44317Y123096D01*
X44837Y122195D01*
X45573Y121459D01*
X46474Y120939D01*
X47480Y120669D01*
X48520D01*
X49526Y120939D01*
X50427Y121459D01*
X51163Y122195D01*
X51683Y123096D01*
X51953Y124102D01*
Y125142D01*
X51683Y126148D01*
X51163Y127049D01*
X50427Y127785D01*
X49526Y128305D01*
X48520Y128575D01*
D02*
G37*
G36*
X41953D02*
X34047D01*
Y120669D01*
X41953D01*
Y128575D01*
D02*
G37*
G36*
X91994Y122784D02*
X90670D01*
Y120431D01*
X91313Y120861D01*
X91817Y121615D01*
X91994Y122504D01*
Y122784D01*
D02*
G37*
G36*
X88670D02*
X87346D01*
Y122504D01*
X87523Y121615D01*
X88027Y120861D01*
X88670Y120431D01*
Y122784D01*
D02*
G37*
G36*
X81898Y125500D02*
X81102D01*
X80367Y125196D01*
X79804Y124633D01*
X79500Y123898D01*
Y123102D01*
X79804Y122367D01*
X79922Y122250D01*
X79804Y122133D01*
X79500Y121398D01*
Y120602D01*
X79804Y119867D01*
X80367Y119305D01*
X81102Y119000D01*
X81898D01*
X82633Y119305D01*
X83196Y119867D01*
X83500Y120602D01*
Y121398D01*
X83196Y122133D01*
X83078Y122250D01*
X83196Y122367D01*
X83500Y123102D01*
Y123898D01*
X83196Y124633D01*
X82633Y125196D01*
X81898Y125500D01*
D02*
G37*
G36*
X8398Y121000D02*
X7602D01*
X6867Y120695D01*
X6305Y120133D01*
X6000Y119398D01*
Y118602D01*
X6305Y117867D01*
X6867Y117305D01*
X7602Y117000D01*
X8398D01*
X9133Y117305D01*
X9696Y117867D01*
X10000Y118602D01*
Y119398D01*
X9696Y120133D01*
X9133Y120695D01*
X8398Y121000D01*
D02*
G37*
G36*
X62398Y118000D02*
X61602D01*
X60867Y117695D01*
X60304Y117133D01*
X60000Y116398D01*
Y115602D01*
X60005Y115590D01*
X59672Y115453D01*
X59508Y115289D01*
X59361Y115436D01*
X58626Y115740D01*
X57831D01*
X57095Y115436D01*
X56533Y114873D01*
X56228Y114138D01*
Y113342D01*
X56533Y112607D01*
X57095Y112045D01*
X57831Y111740D01*
X58626D01*
X59361Y112045D01*
X59525Y112208D01*
X59672Y112062D01*
X60010Y111922D01*
X60000Y111898D01*
Y111102D01*
X60304Y110367D01*
X60867Y109804D01*
X61602Y109500D01*
X62398D01*
X63133Y109804D01*
X63696Y110367D01*
X64000Y111102D01*
Y111846D01*
X64439Y112028D01*
X65002Y112590D01*
X65307Y113325D01*
Y114121D01*
X65002Y114856D01*
X64439Y115419D01*
X63999Y115601D01*
X64000Y115602D01*
Y116398D01*
X63696Y117133D01*
X63133Y117695D01*
X62398Y118000D01*
D02*
G37*
G36*
X68520Y128575D02*
X67480D01*
X66474Y128305D01*
X65573Y127785D01*
X64837Y127049D01*
X64317Y126148D01*
X64047Y125142D01*
Y124102D01*
X64317Y123096D01*
X64837Y122195D01*
X65573Y121459D01*
X66474Y120939D01*
X67480Y120669D01*
X68520D01*
X69526Y120939D01*
X69906Y121158D01*
X70054Y121028D01*
X70000Y120898D01*
Y120102D01*
X70305Y119367D01*
X70422Y119250D01*
X70305Y119133D01*
X70000Y118398D01*
Y117602D01*
X70305Y116867D01*
X70867Y116305D01*
X71602Y116000D01*
X72249D01*
X72304Y115867D01*
X72867Y115305D01*
X73602Y115000D01*
X74398D01*
X75133Y115305D01*
X75696Y115867D01*
X76000Y116602D01*
Y117398D01*
X75696Y118133D01*
X75578Y118250D01*
X75696Y118367D01*
X76000Y119102D01*
Y119898D01*
X75696Y120633D01*
X75578Y120750D01*
X75696Y120867D01*
X76000Y121602D01*
Y122398D01*
X75696Y123133D01*
X75133Y123696D01*
X74398Y124000D01*
X73602D01*
X72867Y123696D01*
X72304Y123133D01*
X72042Y122500D01*
X71602D01*
X71539Y122474D01*
X71409Y122622D01*
X71683Y123096D01*
X71953Y124102D01*
Y125142D01*
X71683Y126148D01*
X71163Y127049D01*
X70427Y127785D01*
X69526Y128305D01*
X68520Y128575D01*
D02*
G37*
G36*
X33398Y113000D02*
X32602D01*
X31867Y112696D01*
X31304Y112133D01*
X31000Y111398D01*
Y110602D01*
X31304Y109867D01*
X31867Y109304D01*
X32602Y109000D01*
X33398D01*
X34133Y109304D01*
X34696Y109867D01*
X35000Y110602D01*
Y111398D01*
X34696Y112133D01*
X34133Y112696D01*
X33398Y113000D01*
D02*
G37*
G36*
X83398Y116000D02*
X82602D01*
X81867Y115696D01*
X81305Y115133D01*
X81000Y114398D01*
Y113602D01*
X81305Y112867D01*
X81867Y112304D01*
X82140Y112191D01*
X82109Y112036D01*
X82095Y111997D01*
X81367Y111696D01*
X80805Y111133D01*
X80500Y110398D01*
Y109602D01*
X80805Y108867D01*
X81367Y108305D01*
X82102Y108000D01*
X82898D01*
X83633Y108305D01*
X84196Y108867D01*
X84500Y109602D01*
Y110398D01*
X84196Y111133D01*
X83633Y111696D01*
X83360Y111809D01*
X83391Y111964D01*
X83405Y112003D01*
X84133Y112304D01*
X84299Y112471D01*
X88867D01*
X91971Y109367D01*
Y106392D01*
X91774Y106333D01*
X91313Y107021D01*
X90670Y107451D01*
Y104098D01*
Y100745D01*
X91313Y101175D01*
X91774Y101864D01*
X91971Y101804D01*
Y96500D01*
X92087Y95915D01*
X92419Y95419D01*
X99971Y87866D01*
Y48596D01*
X99629Y48255D01*
X99325Y47520D01*
Y46724D01*
X99629Y45989D01*
X100192Y45426D01*
X100927Y45122D01*
X101723D01*
X102458Y45426D01*
X103021Y45989D01*
X103325Y46724D01*
Y47520D01*
X103029Y48234D01*
Y88500D01*
X102913Y89085D01*
X102581Y89581D01*
X95029Y97133D01*
Y110000D01*
X94913Y110585D01*
X94581Y111081D01*
X90581Y115081D01*
X90085Y115413D01*
X89500Y115529D01*
X84299D01*
X84133Y115696D01*
X83398Y116000D01*
D02*
G37*
G36*
X88670Y107451D02*
X88027Y107021D01*
X87523Y106267D01*
X87346Y105378D01*
Y105098D01*
X88670D01*
Y107451D01*
D02*
G37*
G36*
X61898Y107500D02*
X61102D01*
X60367Y107195D01*
X59804Y106633D01*
X59500Y105898D01*
Y105102D01*
X59804Y104367D01*
X60367Y103805D01*
X61102Y103500D01*
X61898D01*
X62633Y103805D01*
X63196Y104367D01*
X63500Y105102D01*
Y105898D01*
X63196Y106633D01*
X62633Y107195D01*
X61898Y107500D01*
D02*
G37*
G36*
X33398Y107000D02*
X32602D01*
X31867Y106695D01*
X31304Y106133D01*
X31000Y105398D01*
Y104602D01*
X31304Y103867D01*
X31867Y103305D01*
X32602Y103000D01*
X33398D01*
X34133Y103305D01*
X34696Y103867D01*
X35000Y104602D01*
Y105398D01*
X34696Y106133D01*
X34133Y106695D01*
X33398Y107000D01*
D02*
G37*
G36*
X38398Y106000D02*
X37602D01*
X36867Y105695D01*
X36305Y105133D01*
X36000Y104398D01*
Y103602D01*
X36305Y102867D01*
X36867Y102304D01*
X37602Y102000D01*
X38398D01*
X39133Y102304D01*
X39696Y102867D01*
X40000Y103602D01*
Y104398D01*
X39696Y105133D01*
X39133Y105695D01*
X38398Y106000D01*
D02*
G37*
G36*
X99300Y102736D02*
X98774D01*
X97789Y102541D01*
X96954Y101982D01*
X96405Y101161D01*
X99300D01*
Y102736D01*
D02*
G37*
G36*
X88670Y103098D02*
X87346D01*
Y102819D01*
X87523Y101929D01*
X88027Y101175D01*
X88670Y100745D01*
Y103098D01*
D02*
G37*
G36*
X99300Y99161D02*
X96405D01*
X96954Y98341D01*
X97789Y97782D01*
X98774Y97586D01*
X99300D01*
Y99161D01*
D02*
G37*
G36*
X77898Y94500D02*
X77102D01*
X76367Y94195D01*
X75805Y93633D01*
X75500Y92898D01*
Y92102D01*
X75805Y91367D01*
X76367Y90804D01*
X77102Y90500D01*
X77898D01*
X78633Y90804D01*
X79195Y91367D01*
X79500Y92102D01*
Y92898D01*
X79195Y93633D01*
X78633Y94195D01*
X77898Y94500D01*
D02*
G37*
G36*
X70398D02*
X69602D01*
X68867Y94195D01*
X68305Y93633D01*
X68000Y92898D01*
Y92102D01*
X68305Y91367D01*
X68867Y90804D01*
X69602Y90500D01*
X70398D01*
X71133Y90804D01*
X71696Y91367D01*
X72000Y92102D01*
Y92898D01*
X71696Y93633D01*
X71133Y94195D01*
X70398Y94500D01*
D02*
G37*
G36*
X54398Y92500D02*
X53602D01*
X52867Y92195D01*
X52305Y91633D01*
X52000Y90898D01*
Y90102D01*
X52305Y89367D01*
X52867Y88805D01*
X53602Y88500D01*
X54398D01*
X55133Y88805D01*
X55695Y89367D01*
X56000Y90102D01*
Y90898D01*
X55695Y91633D01*
X55133Y92195D01*
X54398Y92500D01*
D02*
G37*
G36*
X29898Y89000D02*
X29102D01*
X28367Y88696D01*
X27804Y88133D01*
X27500Y87398D01*
Y86602D01*
X27804Y85867D01*
X28367Y85304D01*
X29102Y85000D01*
X29898D01*
X30633Y85304D01*
X31196Y85867D01*
X31500Y86602D01*
Y87398D01*
X31196Y88133D01*
X30633Y88696D01*
X29898Y89000D01*
D02*
G37*
G36*
X85398Y86500D02*
X84602D01*
X83867Y86195D01*
X83305Y85633D01*
X83000Y84898D01*
Y84102D01*
X83305Y83367D01*
X83867Y82805D01*
X84602Y82500D01*
X85398D01*
X86133Y82805D01*
X86695Y83367D01*
X87000Y84102D01*
Y84898D01*
X86695Y85633D01*
X86133Y86195D01*
X85398Y86500D01*
D02*
G37*
G36*
X57398Y83000D02*
X56602D01*
X55867Y82696D01*
X55304Y82133D01*
X55000Y81398D01*
Y80602D01*
X55304Y79867D01*
X55422Y79750D01*
X55304Y79633D01*
X55000Y78898D01*
Y78102D01*
X55304Y77367D01*
X55867Y76805D01*
X56602Y76500D01*
X57398D01*
X57864Y76693D01*
X58000Y76602D01*
X58305Y75867D01*
X58867Y75305D01*
X59602Y75000D01*
X60398D01*
X61133Y75305D01*
X61695Y75867D01*
X61902Y76365D01*
X62098D01*
X62305Y75867D01*
X62867Y75305D01*
X63602Y75000D01*
X64398D01*
X65133Y75305D01*
X65696Y75867D01*
X66000Y76602D01*
Y77398D01*
X65696Y78133D01*
X65133Y78695D01*
X64398Y79000D01*
X63602D01*
X62867Y78695D01*
X62305Y78133D01*
X62098Y77635D01*
X61902D01*
X61695Y78133D01*
X61133Y78695D01*
X60398Y79000D01*
X59602D01*
X59136Y78807D01*
X59000Y78898D01*
X58696Y79633D01*
X58578Y79750D01*
X58696Y79867D01*
X59000Y80602D01*
Y81398D01*
X58696Y82133D01*
X58133Y82696D01*
X57398Y83000D01*
D02*
G37*
G36*
X11398Y78000D02*
X10602D01*
X9867Y77696D01*
X9305Y77133D01*
X9000Y76398D01*
Y75602D01*
X9305Y74867D01*
X9867Y74304D01*
X10602Y74000D01*
X11398D01*
X12133Y74304D01*
X12696Y74867D01*
X13000Y75602D01*
Y76398D01*
X12696Y77133D01*
X12133Y77696D01*
X11398Y78000D01*
D02*
G37*
G36*
X8398Y70500D02*
X7602D01*
X6867Y70196D01*
X6305Y69633D01*
X6000Y68898D01*
Y68102D01*
X6305Y67367D01*
X6867Y66804D01*
X7602Y66500D01*
X8398D01*
X9133Y66804D01*
X9696Y67367D01*
X10000Y68102D01*
Y68898D01*
X9696Y69633D01*
X9133Y70196D01*
X8398Y70500D01*
D02*
G37*
G36*
X79898Y70000D02*
X79102D01*
X78367Y69696D01*
X77804Y69133D01*
X77500Y68398D01*
Y67602D01*
X77804Y66867D01*
X78367Y66304D01*
X79102Y66000D01*
X79898D01*
X80633Y66304D01*
X81195Y66867D01*
X81500Y67602D01*
Y68398D01*
X81195Y69133D01*
X80633Y69696D01*
X79898Y70000D01*
D02*
G37*
G36*
X26898Y68500D02*
X26102D01*
X25367Y68195D01*
X24804Y67633D01*
X24500Y66898D01*
Y66102D01*
X24804Y65367D01*
X25367Y64805D01*
X26102Y64500D01*
X26898D01*
X27633Y64805D01*
X28196Y65367D01*
X28500Y66102D01*
Y66898D01*
X28196Y67633D01*
X27633Y68195D01*
X26898Y68500D01*
D02*
G37*
G36*
X60146Y68252D02*
X59350D01*
X58615Y67948D01*
X58052Y67385D01*
X57748Y66650D01*
Y65854D01*
X58052Y65119D01*
X58615Y64556D01*
X59350Y64252D01*
X60146D01*
X60881Y64556D01*
X61444Y65119D01*
X61748Y65854D01*
Y66650D01*
X61444Y67385D01*
X60881Y67948D01*
X60146Y68252D01*
D02*
G37*
G36*
X67181Y67293D02*
X66385D01*
X65650Y66988D01*
X65087Y66426D01*
X64783Y65691D01*
Y64895D01*
X65087Y64160D01*
X65650Y63597D01*
X66385Y63293D01*
X67181D01*
X67916Y63597D01*
X68478Y64160D01*
X68783Y64895D01*
Y65691D01*
X68478Y66426D01*
X67916Y66988D01*
X67181Y67293D01*
D02*
G37*
G36*
X19898Y70500D02*
X19102D01*
X18367Y70196D01*
X17805Y69633D01*
X17500Y68898D01*
Y68102D01*
X17805Y67367D01*
X18367Y66804D01*
X18865Y66598D01*
Y66402D01*
X18367Y66195D01*
X17805Y65633D01*
X17500Y64898D01*
Y64102D01*
X17805Y63367D01*
X18367Y62805D01*
X18865Y62598D01*
Y62402D01*
X18367Y62195D01*
X17805Y61633D01*
X17500Y60898D01*
Y60102D01*
X17805Y59367D01*
X18367Y58805D01*
X19102Y58500D01*
X19898D01*
X20633Y58805D01*
X21195Y59367D01*
X21500Y60102D01*
Y60898D01*
X21195Y61633D01*
X20633Y62195D01*
X20135Y62402D01*
Y62598D01*
X20633Y62805D01*
X21195Y63367D01*
X21500Y64102D01*
Y64898D01*
X21195Y65633D01*
X20633Y66195D01*
X20135Y66402D01*
Y66598D01*
X20633Y66804D01*
X21195Y67367D01*
X21500Y68102D01*
Y68898D01*
X21195Y69633D01*
X20633Y70196D01*
X19898Y70500D01*
D02*
G37*
G36*
X98453Y64953D02*
X90547D01*
Y57047D01*
X98453D01*
Y64953D01*
D02*
G37*
G36*
X85020D02*
X83980D01*
X82974Y64683D01*
X82073Y64163D01*
X81337Y63427D01*
X80817Y62526D01*
X80547Y61520D01*
Y60480D01*
X80817Y59474D01*
X81337Y58573D01*
X82073Y57837D01*
X82974Y57317D01*
X83980Y57047D01*
X85020D01*
X86026Y57317D01*
X86927Y57837D01*
X87663Y58573D01*
X88183Y59474D01*
X88453Y60480D01*
Y61520D01*
X88183Y62526D01*
X87663Y63427D01*
X86927Y64163D01*
X86026Y64683D01*
X85020Y64953D01*
D02*
G37*
G36*
X46398Y59500D02*
X45602D01*
X44867Y59196D01*
X44304Y58633D01*
X44000Y57898D01*
Y57102D01*
X44304Y56367D01*
X44867Y55805D01*
X45602Y55500D01*
X46398D01*
X47133Y55805D01*
X47695Y56367D01*
X48000Y57102D01*
Y57898D01*
X47695Y58633D01*
X47133Y59196D01*
X46398Y59500D01*
D02*
G37*
G36*
X64398Y56500D02*
X63602D01*
X62867Y56195D01*
X62305Y55633D01*
X62000Y54898D01*
Y54102D01*
X62305Y53367D01*
X62867Y52804D01*
X63602Y52500D01*
X64398D01*
X65133Y52804D01*
X65696Y53367D01*
X66000Y54102D01*
Y54898D01*
X65696Y55633D01*
X65133Y56195D01*
X64398Y56500D01*
D02*
G37*
G36*
X96398Y55500D02*
X95602D01*
X94867Y55195D01*
X94305Y54633D01*
X94000Y53898D01*
Y53102D01*
X94305Y52367D01*
X94867Y51805D01*
X95602Y51500D01*
X96398D01*
X97133Y51805D01*
X97695Y52367D01*
X98000Y53102D01*
Y53898D01*
X97695Y54633D01*
X97133Y55195D01*
X96398Y55500D01*
D02*
G37*
G36*
X12398Y53000D02*
X11602D01*
X10867Y52696D01*
X10305Y52133D01*
X10000Y51398D01*
Y50602D01*
X10305Y49867D01*
X10867Y49305D01*
X11602Y49000D01*
X12398D01*
X13133Y49305D01*
X13695Y49867D01*
X14000Y50602D01*
Y51398D01*
X13695Y52133D01*
X13133Y52696D01*
X12398Y53000D01*
D02*
G37*
G36*
X68398Y42000D02*
X67602D01*
X66867Y41695D01*
X66304Y41133D01*
X66000Y40398D01*
Y39602D01*
X66304Y38867D01*
X66867Y38304D01*
X67602Y38000D01*
X68398D01*
X69133Y38304D01*
X69696Y38867D01*
X70000Y39602D01*
Y40398D01*
X69696Y41133D01*
X69133Y41695D01*
X68398Y42000D01*
D02*
G37*
G36*
X20298Y48308D02*
X5828D01*
Y34977D01*
Y34071D01*
X20298D01*
Y48308D01*
D02*
G37*
G36*
X68398Y37122D02*
X67602D01*
X66867Y36818D01*
X66304Y36255D01*
X66000Y35520D01*
Y34724D01*
X66304Y33989D01*
X66867Y33426D01*
X67602Y33122D01*
X68398D01*
X69133Y33426D01*
X69696Y33989D01*
X70000Y34724D01*
Y35520D01*
X69696Y36255D01*
X69133Y36818D01*
X68398Y37122D01*
D02*
G37*
G36*
Y32500D02*
X67602D01*
X66867Y32195D01*
X66304Y31633D01*
X66000Y30898D01*
Y30102D01*
X66304Y29367D01*
X66867Y28804D01*
X67602Y28500D01*
X68398D01*
X69133Y28804D01*
X69696Y29367D01*
X70000Y30102D01*
Y30898D01*
X69696Y31633D01*
X69133Y32195D01*
X68398Y32500D01*
D02*
G37*
G36*
X98398Y29500D02*
X97602D01*
X96867Y29195D01*
X96305Y28633D01*
X96000Y27898D01*
Y27102D01*
X96305Y26367D01*
X96867Y25804D01*
X97602Y25500D01*
X98398D01*
X99133Y25804D01*
X99695Y26367D01*
X100000Y27102D01*
Y27898D01*
X99695Y28633D01*
X99133Y29195D01*
X98398Y29500D01*
D02*
G37*
G36*
X90551Y21232D02*
Y21214D01*
X15748D01*
Y21232D01*
X14329Y21045D01*
X13006Y20497D01*
X11870Y19626D01*
X10999Y18490D01*
X10451Y17167D01*
X10264Y15748D01*
X10451Y14329D01*
X10999Y13006D01*
X11870Y11870D01*
X13006Y10999D01*
X14329Y10451D01*
X15748Y10264D01*
Y10282D01*
X90551D01*
Y10264D01*
X91970Y10451D01*
X93293Y10999D01*
X94429Y11870D01*
X95300Y13006D01*
X95848Y14329D01*
X96035Y15748D01*
X95848Y17167D01*
X95300Y18490D01*
X94429Y19626D01*
X93293Y20497D01*
X91970Y21045D01*
X90551Y21232D01*
D02*
G37*
%LPD*%
D11*
X83000Y114000D02*
X89500D01*
X93500Y110000D01*
Y96500D02*
Y110000D01*
Y96500D02*
X101500Y88500D01*
X101325Y47122D02*
X101500Y47297D01*
Y88500D01*
D54*
X100300Y127720D02*
D03*
Y100161D02*
D03*
D55*
X89670Y123784D02*
D03*
Y104098D02*
D03*
D56*
X15600Y61000D02*
D03*
X50669Y116000D02*
D03*
X84500Y93622D02*
D03*
X34500Y62000D02*
D03*
X6000Y145000D02*
D03*
X76500Y31000D02*
D03*
X34500Y46000D02*
D03*
X39500Y23500D02*
D03*
X49500D02*
D03*
X59500D02*
D03*
X69500D02*
D03*
X82000Y28500D02*
D03*
X100329Y16699D02*
D03*
X102000Y93500D02*
D03*
X90922Y93602D02*
D03*
X100000Y138500D02*
D03*
X5500Y113000D02*
D03*
X5000Y125500D02*
D03*
X5812Y136514D02*
D03*
X11319Y148755D02*
D03*
X21319D02*
D03*
X31319D02*
D03*
X41319D02*
D03*
X51319D02*
D03*
X61319D02*
D03*
X71319D02*
D03*
X81319D02*
D03*
X91319D02*
D03*
X85819Y154133D02*
D03*
X75819D02*
D03*
X65819D02*
D03*
X55819D02*
D03*
X45819D02*
D03*
X35819D02*
D03*
X25819D02*
D03*
X15819D02*
D03*
X6819D02*
D03*
X96319D02*
D03*
X94500Y9000D02*
D03*
X99000Y3500D02*
D03*
X14000Y9000D02*
D03*
X24000D02*
D03*
X34000D02*
D03*
X44000D02*
D03*
X54000D02*
D03*
X64000D02*
D03*
X74000D02*
D03*
X84000D02*
D03*
X94500Y133622D02*
D03*
X89500Y63622D02*
D03*
Y23622D02*
D03*
Y3622D02*
D03*
X84500Y133622D02*
D03*
X79500Y63622D02*
D03*
X84500Y33622D02*
D03*
X79500Y23622D02*
D03*
Y3622D02*
D03*
X69500D02*
D03*
X64500Y73622D02*
D03*
X59500Y3622D02*
D03*
X49500D02*
D03*
X44500Y73622D02*
D03*
X39500Y3622D02*
D03*
X34500Y93622D02*
D03*
Y53622D02*
D03*
X29500Y3622D02*
D03*
X24500Y133622D02*
D03*
X19500Y3622D02*
D03*
X14500Y133622D02*
D03*
X60000Y54500D02*
D03*
X42000Y104000D02*
D03*
X83000Y114000D02*
D03*
X37500Y94500D02*
D03*
X94500Y114000D02*
D03*
X51000Y106500D02*
D03*
X68994Y110000D02*
D03*
X71000D02*
D03*
X66988D02*
D03*
X76500Y79500D02*
D03*
X84129Y81629D02*
D03*
X7000Y76000D02*
D03*
X14000Y88500D02*
D03*
X82000Y93500D02*
D03*
X78000Y128000D02*
D03*
X76000Y126500D02*
D03*
X80000D02*
D03*
X72500Y53000D02*
D03*
X63000Y119000D02*
D03*
X64000Y100000D02*
D03*
X101325Y47122D02*
D03*
X74000Y103500D02*
D03*
X38000Y30500D02*
D03*
Y35122D02*
D03*
Y40000D02*
D03*
X51000Y101500D02*
D03*
X45000Y115000D02*
D03*
Y111000D02*
D03*
X76500Y97500D02*
D03*
X41500Y90000D02*
D03*
X37000Y113500D02*
D03*
X14000Y95000D02*
D03*
X17000Y92000D02*
D03*
X11000D02*
D03*
X93500Y122000D02*
D03*
X8000Y123000D02*
D03*
X29500Y91000D02*
D03*
Y97000D02*
D03*
X3000D02*
D03*
X87500Y38500D02*
D03*
X98000Y75500D02*
D03*
X89000Y47500D02*
D03*
X88500Y33000D02*
D03*
X77000Y36000D02*
D03*
X76000Y60500D02*
D03*
X48500Y73500D02*
D03*
X42500Y83500D02*
D03*
X46500Y78500D02*
D03*
X64000Y87500D02*
D03*
X81500Y130500D02*
D03*
X42500Y135000D02*
D03*
X22500Y128000D02*
D03*
X16000Y71500D02*
D03*
X26500Y70500D02*
D03*
X28000Y79000D02*
D03*
X3385Y26582D02*
D03*
X16422Y29135D02*
D03*
X11934Y32468D02*
D03*
D57*
X99299Y150480D02*
D03*
X7000Y7000D02*
D03*
M02*
