G04*
G04 #@! TF.GenerationSoftware,Altium Limited,Altium Designer,22.3.1 (43)*
G04*
G04 Layer_Physical_Order=1*
G04 Layer_Color=255*
%FSLAX25Y25*%
%MOIN*%
G70*
G04*
G04 #@! TF.SameCoordinates,8BB9F333-D91B-4341-8B3B-76DA7BD7A395*
G04*
G04*
G04 #@! TF.FilePolarity,Positive*
G04*
G01*
G75*
%ADD11C,0.01000*%
%ADD17R,0.03937X0.03543*%
%ADD18R,0.02165X0.06693*%
%ADD19R,0.02362X0.01968*%
%ADD20R,0.07500X0.04300*%
%ADD21R,0.01968X0.02362*%
%ADD22R,0.04528X0.03150*%
%ADD23R,0.06500X0.15000*%
%ADD24R,0.06102X0.05906*%
%ADD25R,0.05315X0.01575*%
%ADD26R,0.02756X0.02362*%
%ADD27R,0.02362X0.02756*%
%ADD28R,0.03150X0.01378*%
%ADD29R,0.01378X0.03347*%
%ADD30R,0.01181X0.04724*%
%ADD31R,0.04724X0.01181*%
%ADD32R,0.04331X0.02362*%
%ADD49C,0.01181*%
%ADD50C,0.01575*%
%ADD51C,0.02362*%
%ADD52C,0.05906*%
%ADD53R,0.05906X0.05906*%
%ADD54O,0.06102X0.03051*%
%ADD55O,0.02559X0.05118*%
%ADD56C,0.02000*%
%ADD57C,0.04724*%
G36*
X98367Y155943D02*
Y155943D01*
X98367Y155943D01*
X99368Y155844D01*
X100561Y155482D01*
X101661Y154895D01*
X102624Y154104D01*
X103416Y153140D01*
X104003Y152040D01*
X104365Y150847D01*
X104487Y149606D01*
X104464Y149366D01*
X104464D01*
X104464Y149366D01*
X104472Y149175D01*
Y128372D01*
X104275Y128353D01*
X104205Y128706D01*
X103646Y129541D01*
X102811Y130099D01*
X101826Y130296D01*
X101300D01*
Y129689D01*
X101383D01*
X101486Y129686D01*
X101588Y129678D01*
X101691Y129665D01*
X101792Y129646D01*
X101892Y129622D01*
X101991Y129593D01*
X102088Y129558D01*
X102183Y129519D01*
X102276Y129474D01*
X102367Y129425D01*
X102455Y129371D01*
X102540Y129313D01*
X102621Y129250D01*
X102700Y129183D01*
X102775Y129112D01*
X102846Y129038D01*
X102912Y128959D01*
X102975Y128877D01*
X103034Y128793D01*
X103087Y128705D01*
X103137Y128614D01*
X103181Y128521D01*
X103220Y128426D01*
X103255Y128329D01*
X103284Y128230D01*
X103308Y128130D01*
X103327Y128028D01*
X103340Y127926D01*
X103349Y127823D01*
X103351Y127720D01*
Y125702D01*
X103646Y125900D01*
X104205Y126735D01*
X104275Y127088D01*
X104472Y127069D01*
Y121978D01*
X104351Y121831D01*
X104275Y121831D01*
X96249D01*
Y113925D01*
Y106051D01*
X104275D01*
X104351Y106051D01*
X104472Y105904D01*
Y100813D01*
X104275Y100794D01*
X104205Y101147D01*
X103646Y101982D01*
X103351Y102180D01*
Y100171D01*
X102564D01*
X102562Y100218D01*
X102558Y100269D01*
X102552Y100320D01*
X102542Y100370D01*
X102530Y100420D01*
X102516Y100469D01*
X102499Y100517D01*
X102479Y100565D01*
X102457Y100611D01*
X102433Y100656D01*
X102406Y100700D01*
X102377Y100742D01*
X102346Y100783D01*
X102312Y100822D01*
X102277Y100859D01*
X102240Y100894D01*
X102201Y100927D01*
X102160Y100959D01*
X102118Y100988D01*
X102074Y101014D01*
X102029Y101039D01*
X101983Y101061D01*
X101935Y101081D01*
X101887Y101098D01*
X101838Y101112D01*
X101788Y101124D01*
X101738Y101134D01*
X101687Y101140D01*
X101636Y101144D01*
X101579Y101146D01*
X101300D01*
Y100161D01*
Y99177D01*
X101579D01*
X101636Y99178D01*
X101687Y99182D01*
X101738Y99189D01*
X101788Y99199D01*
X101838Y99211D01*
X101887Y99225D01*
X101935Y99242D01*
X101983Y99262D01*
X102029Y99284D01*
X102074Y99308D01*
X102118Y99335D01*
X102160Y99364D01*
X102201Y99395D01*
X102240Y99429D01*
X102277Y99464D01*
X102312Y99501D01*
X102346Y99540D01*
X102377Y99581D01*
X102406Y99623D01*
X102433Y99667D01*
X102457Y99712D01*
X102479Y99758D01*
X102499Y99805D01*
X102516Y99854D01*
X102530Y99903D01*
X102542Y99953D01*
X102552Y100003D01*
X102558Y100054D01*
X102562Y100105D01*
X102564Y100152D01*
X103351D01*
X103349Y100054D01*
X103340Y99951D01*
X103327Y99849D01*
X103308Y99748D01*
X103284Y99648D01*
X103255Y99550D01*
X103221Y99453D01*
X103181Y99358D01*
X103137Y99265D01*
X103088Y99175D01*
X103034Y99087D01*
X102976Y99002D01*
X102914Y98921D01*
X102847Y98843D01*
X102776Y98768D01*
X102701Y98697D01*
X102623Y98630D01*
X102542Y98568D01*
X102457Y98510D01*
X102369Y98456D01*
X102279Y98407D01*
X102186Y98363D01*
X102091Y98323D01*
X101994Y98289D01*
X101896Y98260D01*
X101796Y98236D01*
X101695Y98217D01*
X101593Y98204D01*
X101490Y98196D01*
X101383Y98193D01*
X101300D01*
Y97586D01*
X101826D01*
X102811Y97782D01*
X103646Y98341D01*
X104205Y99176D01*
X104275Y99529D01*
X104472Y99510D01*
Y84150D01*
X100516D01*
Y83291D01*
X99250D01*
Y83672D01*
X89750D01*
Y81301D01*
X88388D01*
X88388Y81301D01*
X87690Y81162D01*
X87099Y80767D01*
X87099Y80767D01*
X86104Y79772D01*
X84516D01*
Y79413D01*
X83484D01*
Y79772D01*
X79516D01*
Y75323D01*
X73094D01*
Y78016D01*
Y81197D01*
X69889D01*
X69732Y81228D01*
Y81921D01*
X72259D01*
X72416Y81953D01*
X73094D01*
Y82189D01*
X73405Y82397D01*
X74334Y83325D01*
X74516Y83250D01*
Y80450D01*
X75500D01*
Y82631D01*
X76500D01*
Y83631D01*
X78484D01*
Y84746D01*
X79516D01*
Y83631D01*
X81500D01*
Y82631D01*
X82500D01*
Y80450D01*
X83484D01*
Y82930D01*
X83666Y83005D01*
X83867Y82805D01*
X84602Y82500D01*
X85398D01*
X86133Y82805D01*
X86695Y83367D01*
X87000Y84102D01*
Y84898D01*
X86695Y85633D01*
X86133Y86195D01*
X85508Y86454D01*
X84499Y87463D01*
X83908Y87858D01*
X83484Y87943D01*
Y88750D01*
X79516D01*
Y88391D01*
X78484D01*
Y88750D01*
X74800D01*
X74725Y88932D01*
X76530Y90737D01*
X77102Y90500D01*
X77898D01*
X78633Y90804D01*
X79195Y91367D01*
X79500Y92102D01*
Y92898D01*
X79195Y93633D01*
X78860Y93968D01*
X78935Y94150D01*
X81484D01*
Y95332D01*
X79500D01*
Y97332D01*
X81484D01*
Y98087D01*
Y102450D01*
X77516D01*
Y102322D01*
X76528D01*
Y102484D01*
X72277D01*
Y106000D01*
X72277Y106000D01*
X72138Y106697D01*
X71743Y107289D01*
X71483Y107548D01*
X70892Y107943D01*
X70195Y108082D01*
X70153Y108273D01*
Y109000D01*
X66988D01*
Y111000D01*
X70153D01*
Y111559D01*
Y115921D01*
X65520D01*
Y117439D01*
X65498Y117546D01*
X65497Y117655D01*
X65460Y117739D01*
X65442Y117829D01*
X65381Y117920D01*
X65338Y118019D01*
X65272Y118083D01*
X65221Y118160D01*
X65131Y118220D01*
X65052Y118296D01*
X64967Y118330D01*
X64890Y118381D01*
X64783Y118402D01*
X64682Y118442D01*
X64485Y118478D01*
X64393Y118476D01*
X64303Y118494D01*
X64196Y118473D01*
X64088Y118471D01*
X64003Y118435D01*
X63913Y118417D01*
X63823Y118356D01*
X63723Y118313D01*
X63659Y118247D01*
X63582Y118196D01*
X63555Y118169D01*
X63195Y118020D01*
X62805D01*
X62445Y118169D01*
X62392Y118221D01*
X62062Y118442D01*
X61672Y118520D01*
X57968D01*
X57791Y118484D01*
X54697D01*
X54621Y118666D01*
X56805Y120850D01*
X57480Y120669D01*
X58520D01*
X59526Y120939D01*
X60427Y121459D01*
X61163Y122195D01*
X61683Y123096D01*
X61953Y124102D01*
Y125142D01*
X61683Y126148D01*
X61163Y127049D01*
X60850Y127362D01*
X60926Y127544D01*
X62785D01*
X64288Y126041D01*
X64047Y125142D01*
Y124102D01*
X64317Y123096D01*
X64837Y122195D01*
X65573Y121459D01*
X66474Y120939D01*
X67480Y120669D01*
X68520D01*
X69526Y120939D01*
X69906Y121158D01*
X70054Y121028D01*
X70000Y120898D01*
Y120102D01*
X70305Y119367D01*
X70422Y119250D01*
X70305Y119133D01*
X70000Y118398D01*
Y117602D01*
X70305Y116867D01*
X70867Y116305D01*
X70980Y116258D01*
Y112500D01*
X71058Y112110D01*
X71279Y111779D01*
X71610Y111558D01*
X72000Y111480D01*
X74847D01*
X75237Y111558D01*
X75238Y111559D01*
X80952D01*
X81034Y111362D01*
X80805Y111133D01*
X80500Y110398D01*
Y109602D01*
X80805Y108867D01*
X81034Y108638D01*
X80952Y108441D01*
X74847D01*
Y104079D01*
X81177D01*
Y108216D01*
X81367Y108305D01*
X81992Y108046D01*
X82503Y107534D01*
X82504Y107534D01*
X83095Y107139D01*
X83792Y107000D01*
X83792Y107000D01*
X87804D01*
X87897Y106827D01*
X87523Y106267D01*
X87346Y105378D01*
Y105098D01*
X89670D01*
X91994D01*
Y105378D01*
X91817Y106267D01*
X91436Y106839D01*
X91541Y107035D01*
X93328D01*
Y109595D01*
Y112153D01*
Y114713D01*
Y117272D01*
Y118288D01*
X89670D01*
X86013D01*
Y117272D01*
Y114713D01*
Y110645D01*
X84547D01*
X84292Y110901D01*
X84196Y111133D01*
X83633Y111696D01*
X83360Y111809D01*
X83391Y111964D01*
X83405Y112003D01*
X84133Y112304D01*
X84696Y112867D01*
X85000Y113602D01*
Y114398D01*
X84696Y115133D01*
X84133Y115696D01*
X83972Y115762D01*
X84020Y116000D01*
Y126500D01*
X83942Y126890D01*
X83721Y127221D01*
X83390Y127442D01*
X83000Y127520D01*
X82000D01*
X81610Y127442D01*
X81279Y127221D01*
X81058Y126890D01*
X80980Y126500D01*
Y126305D01*
X80831Y125945D01*
X80555Y125669D01*
X80195Y125520D01*
X79984D01*
Y125650D01*
X79000D01*
Y124679D01*
X78965Y124500D01*
Y123468D01*
X77036D01*
Y124500D01*
X77000Y124679D01*
Y125650D01*
X76016D01*
Y125520D01*
X75805D01*
X75445Y125669D01*
X75169Y125945D01*
X75020Y126305D01*
Y126500D01*
X74942Y126890D01*
X74721Y127221D01*
X74390Y127442D01*
X74000Y127520D01*
X72000D01*
X71610Y127442D01*
X71279Y127221D01*
X71275Y127215D01*
X71022Y127190D01*
X70427Y127785D01*
X69526Y128305D01*
X68520Y128575D01*
X67480D01*
X66581Y128334D01*
X64603Y130312D01*
X64077Y130664D01*
X63457Y130787D01*
X32272D01*
X31651Y130664D01*
X31125Y130312D01*
X27691Y126878D01*
X26028D01*
Y124821D01*
X25060Y123853D01*
X24878Y123929D01*
Y126681D01*
X23500D01*
Y124500D01*
X22500D01*
Y123500D01*
X20122D01*
Y122319D01*
X23268D01*
X23344Y122137D01*
X21353Y120147D01*
X21002Y119621D01*
X20878Y119000D01*
Y109722D01*
X12601D01*
X11980Y109599D01*
X11454Y109247D01*
X8011Y105804D01*
X7659Y105278D01*
X7536Y104657D01*
Y102295D01*
X7468D01*
Y98382D01*
X7229D01*
Y96693D01*
X6229D01*
Y96414D01*
X3654D01*
Y95004D01*
Y93036D01*
Y88465D01*
X3071Y88349D01*
X2545Y87998D01*
X1711Y87164D01*
X1529Y87239D01*
Y149411D01*
X1529Y149412D01*
X1529Y149606D01*
X1538Y149799D01*
X1641Y150846D01*
X2003Y152038D01*
X2590Y153137D01*
X3381Y154100D01*
X4344Y154890D01*
X5442Y155477D01*
X6634Y155839D01*
X7681Y155942D01*
X7874Y155951D01*
Y155951D01*
X7874Y155951D01*
X98359D01*
X98367Y155943D01*
D02*
G37*
G36*
X83000Y116000D02*
X82602D01*
X81867Y115696D01*
X81374Y115202D01*
X81177Y115284D01*
Y115921D01*
X79012D01*
Y113740D01*
X78012D01*
Y112740D01*
X74847D01*
Y112500D01*
X72000D01*
Y126500D01*
X74000D01*
Y126102D01*
X74304Y125367D01*
X74867Y124804D01*
X75602Y124500D01*
X76016D01*
Y121287D01*
Y120531D01*
X78000D01*
X79984D01*
Y121287D01*
Y124500D01*
X80398D01*
X81133Y124804D01*
X81695Y125367D01*
X82000Y126102D01*
Y126500D01*
X83000D01*
Y116000D01*
D02*
G37*
G36*
X46457Y108094D02*
X46275Y108018D01*
X45046Y109247D01*
X44520Y109599D01*
X43899Y109722D01*
X34808D01*
X34717Y109919D01*
X35000Y110602D01*
Y111398D01*
X34696Y112133D01*
X34622Y112207D01*
Y117378D01*
X46457D01*
Y108094D01*
D02*
G37*
G36*
X61150Y117500D02*
X61672D01*
X61867Y117305D01*
X62602Y117000D01*
X63398D01*
X64133Y117305D01*
X64303Y117475D01*
X64500Y117439D01*
Y115921D01*
X63823D01*
Y111559D01*
Y107819D01*
Y104079D01*
X63659Y104000D01*
X59791D01*
Y104516D01*
X60150D01*
Y108484D01*
X59408D01*
X59147Y108875D01*
X58688Y109334D01*
X58763Y109516D01*
X60150D01*
Y110500D01*
X57968D01*
Y111500D01*
X56968D01*
Y113484D01*
X55500D01*
Y114516D01*
X56968D01*
Y116500D01*
X57968D01*
Y117500D01*
X61150D01*
D01*
D02*
G37*
G36*
X51850Y114516D02*
X54480D01*
Y113484D01*
X51850D01*
Y109516D01*
X53919D01*
X54769Y108666D01*
X54694Y108484D01*
X51850D01*
Y107500D01*
X54031D01*
Y106500D01*
X55032D01*
Y104516D01*
X56146D01*
Y103484D01*
X55032D01*
Y101500D01*
Y99516D01*
X56300D01*
Y98716D01*
X49700D01*
Y117178D01*
X51850D01*
Y114516D01*
D02*
G37*
G36*
X44488Y105218D02*
Y98716D01*
X42330D01*
X42173Y98748D01*
X40046D01*
X39653Y99140D01*
Y99516D01*
X40968D01*
Y101500D01*
Y103484D01*
X40079D01*
X40000Y103602D01*
Y104398D01*
X39696Y105133D01*
X39133Y105695D01*
X38398Y106000D01*
X37602D01*
X36867Y105695D01*
X36305Y105133D01*
X36000Y104398D01*
Y103602D01*
X35921Y103484D01*
X35850D01*
Y99516D01*
X36410D01*
Y98469D01*
X36533Y97848D01*
X36885Y97322D01*
X38227Y95979D01*
X38753Y95628D01*
X39374Y95504D01*
X40551D01*
Y95354D01*
X40583Y95198D01*
Y91992D01*
X43764D01*
Y95198D01*
X43795Y95354D01*
X44488D01*
X44519Y95198D01*
Y91992D01*
X48425D01*
Y91953D01*
X48549Y91332D01*
X48900Y90806D01*
X50197Y89510D01*
X50723Y89158D01*
X51343Y89035D01*
X52637D01*
X52867Y88805D01*
X53602Y88500D01*
X54398D01*
X55133Y88805D01*
X55695Y89367D01*
X56000Y90102D01*
Y90898D01*
X55695Y91633D01*
X55518Y91810D01*
X55594Y91992D01*
X65417D01*
Y98716D01*
X59543D01*
Y99516D01*
X60150D01*
Y102980D01*
X63659D01*
X63686Y102986D01*
X63714Y102982D01*
X63880Y103024D01*
X64049Y103058D01*
X64072Y103074D01*
X64099Y103081D01*
X64264Y103159D01*
X64401Y103262D01*
X64544Y103358D01*
X64559Y103381D01*
X64582Y103398D01*
X64669Y103546D01*
X64765Y103689D01*
X64770Y103716D01*
X64785Y103740D01*
X64809Y103910D01*
X64842Y104079D01*
X68632D01*
Y102484D01*
X68228D01*
Y98516D01*
X68587D01*
Y97484D01*
X68228D01*
Y93516D01*
X68228D01*
X68245Y93490D01*
X68000Y92898D01*
Y92102D01*
X68305Y91367D01*
X68450Y91221D01*
X68375Y91039D01*
X66370D01*
Y87858D01*
Y85890D01*
Y81228D01*
X66106D01*
X65486Y81104D01*
X64960Y80753D01*
X62927Y78720D01*
X62867Y78695D01*
X62305Y78133D01*
X62098Y77635D01*
X61902D01*
X61695Y78133D01*
X61133Y78695D01*
X60398Y79000D01*
X59602D01*
X59136Y78807D01*
X59000Y78898D01*
X58696Y79633D01*
X58578Y79750D01*
X58696Y79867D01*
X59000Y80602D01*
Y81398D01*
X58696Y82133D01*
X58133Y82696D01*
X57398Y83000D01*
X56602D01*
X55867Y82696D01*
X55304Y82133D01*
X55000Y81398D01*
Y80602D01*
X55304Y79867D01*
X55422Y79750D01*
X55304Y79633D01*
X55000Y78898D01*
Y78102D01*
X55304Y77367D01*
X55867Y76805D01*
X56602Y76500D01*
X57398D01*
X57864Y76693D01*
X58000Y76602D01*
X58305Y75867D01*
X58867Y75305D01*
X59602Y75000D01*
X60398D01*
X61133Y75305D01*
X61695Y75867D01*
X61902Y76365D01*
X62098D01*
X62305Y75867D01*
X62867Y75305D01*
X63602Y75000D01*
X64398D01*
X65133Y75305D01*
X65696Y75867D01*
X66000Y76602D01*
Y77207D01*
X66188Y77395D01*
X66370Y77319D01*
Y71386D01*
X65456D01*
X64835Y71262D01*
X64309Y70911D01*
X63617Y70219D01*
X63266Y69692D01*
X63142Y69072D01*
Y67312D01*
X63266Y66691D01*
X63617Y66165D01*
X64348Y65434D01*
X64273Y65252D01*
X61676D01*
X61566Y65416D01*
X61748Y65854D01*
Y66650D01*
X61444Y67385D01*
X60881Y67948D01*
X60146Y68252D01*
X59350D01*
X58615Y67948D01*
X58385Y67717D01*
X57632D01*
X57011Y67594D01*
X56485Y67242D01*
X54806Y65563D01*
X54598Y65252D01*
X42122D01*
Y70026D01*
X41998Y70647D01*
X41647Y71173D01*
X39941Y72879D01*
X39630Y73087D01*
Y76047D01*
Y79984D01*
Y83921D01*
Y87858D01*
Y91039D01*
X32906D01*
Y87858D01*
Y83197D01*
X31097D01*
X29475Y84818D01*
X29551Y85000D01*
X29898D01*
X30633Y85304D01*
X31196Y85867D01*
X31500Y86602D01*
Y87398D01*
X31196Y88133D01*
X30633Y88696D01*
X29898Y89000D01*
X29102D01*
X28681Y88826D01*
X28484Y88957D01*
Y90000D01*
X26500D01*
Y91000D01*
X25500D01*
Y93181D01*
X24516D01*
X24503Y93373D01*
Y94627D01*
X24516Y94819D01*
X25500D01*
Y97000D01*
X26500D01*
Y98000D01*
X28484D01*
Y98756D01*
Y103118D01*
X26910D01*
X26862Y103181D01*
X26961Y103378D01*
X31793D01*
X31867Y103305D01*
X32602Y103000D01*
X33398D01*
X34133Y103305D01*
X34696Y103867D01*
X35000Y104602D01*
Y105398D01*
X34696Y106133D01*
X34531Y106297D01*
X34607Y106479D01*
X43228D01*
X44488Y105218D01*
D02*
G37*
G36*
X19354Y95004D02*
Y93036D01*
Y91067D01*
Y89099D01*
Y87130D01*
Y86595D01*
X13374D01*
Y83922D01*
X12815D01*
Y86595D01*
X8804D01*
Y87130D01*
Y89099D01*
Y91067D01*
Y93036D01*
Y95004D01*
Y96949D01*
X19354D01*
Y95004D01*
D02*
G37*
G36*
X100516Y79031D02*
X102500D01*
Y78031D01*
X103500D01*
Y75850D01*
X104472D01*
Y75150D01*
X103500D01*
Y72969D01*
X102500D01*
Y71969D01*
X100516D01*
Y71367D01*
X100500Y71354D01*
X100342Y71322D01*
X99250D01*
Y73872D01*
X89750D01*
Y72344D01*
X88484D01*
Y76998D01*
X89143Y77656D01*
X89750D01*
Y77372D01*
X99250D01*
Y79646D01*
X100516D01*
Y79031D01*
D02*
G37*
G36*
X29278Y80428D02*
X29805Y80076D01*
X30425Y79953D01*
X32906D01*
Y78016D01*
Y76047D01*
Y75323D01*
X23471D01*
X22653Y76140D01*
Y77016D01*
X23968D01*
Y79000D01*
Y80984D01*
X21144D01*
X20689Y81439D01*
Y82300D01*
X27406D01*
X29278Y80428D01*
D02*
G37*
G36*
X13441Y80477D02*
X13565Y79857D01*
X13916Y79330D01*
X13985Y79262D01*
Y78862D01*
X14016Y78706D01*
Y76287D01*
Y75532D01*
X16000D01*
X17984D01*
Y76287D01*
Y79279D01*
X18181Y79360D01*
X18850Y78691D01*
Y77016D01*
X19410D01*
Y75468D01*
X19533Y74848D01*
X19885Y74322D01*
X21653Y72554D01*
X22179Y72202D01*
X22799Y72079D01*
X27016D01*
Y71469D01*
X29000D01*
Y69468D01*
X27016D01*
Y68579D01*
X26898Y68500D01*
X26102D01*
X25367Y68195D01*
X24804Y67633D01*
X24500Y66898D01*
Y66102D01*
X24804Y65367D01*
X25367Y64805D01*
X26102Y64500D01*
X26898D01*
X27016Y64421D01*
Y64350D01*
X30984D01*
Y64910D01*
X31532D01*
X32152Y65033D01*
X32678Y65385D01*
X33467Y66174D01*
X36268D01*
X36424Y66205D01*
X38878D01*
Y64743D01*
X38870Y64704D01*
Y48984D01*
X38850D01*
Y45016D01*
X45907D01*
X46178Y44745D01*
Y43622D01*
X43750D01*
Y26622D01*
X52250D01*
Y43622D01*
X49822D01*
Y45016D01*
X56178D01*
Y43622D01*
X53750D01*
Y26622D01*
X62250D01*
Y43622D01*
X59822D01*
Y45016D01*
X67150D01*
Y45178D01*
X73807D01*
Y44665D01*
X80335D01*
Y49815D01*
X73807D01*
Y48822D01*
X67150D01*
Y48984D01*
X62653D01*
Y49968D01*
X62530Y50589D01*
X62178Y51115D01*
X60647Y52647D01*
X60121Y52998D01*
X59500Y53122D01*
X56672D01*
X55606Y54188D01*
Y58528D01*
X57671D01*
X57850Y58484D01*
Y57500D01*
X60031D01*
Y56500D01*
X61032D01*
Y54516D01*
X62000D01*
Y54102D01*
X62305Y53367D01*
X62867Y52804D01*
X63602Y52500D01*
X64398D01*
X65133Y52804D01*
X65696Y53367D01*
X66000Y54102D01*
Y54516D01*
X66150D01*
Y58484D01*
X65448D01*
Y61890D01*
X65417Y62046D01*
Y63573D01*
X65599Y63648D01*
X65650Y63597D01*
X66385Y63293D01*
X67181D01*
X67916Y63597D01*
X68478Y64160D01*
X68783Y64895D01*
Y65691D01*
X68638Y66041D01*
X68747Y66205D01*
X69576D01*
X69732Y66174D01*
X74016D01*
Y65031D01*
X76000D01*
X77984D01*
Y66162D01*
X78711D01*
X79102Y66000D01*
X79898D01*
X80633Y66304D01*
X81195Y66867D01*
X81500Y67602D01*
Y68398D01*
X81277Y68937D01*
X81386Y69100D01*
X89750D01*
Y67572D01*
X99250D01*
Y67678D01*
X100468D01*
X100469Y67678D01*
X100516Y67490D01*
Y66850D01*
X104472D01*
Y52465D01*
X98909D01*
Y46921D01*
X99325D01*
Y46724D01*
X99503Y46295D01*
Y41048D01*
X99503Y41048D01*
X99641Y40350D01*
X100036Y39759D01*
X100056Y39740D01*
Y36323D01*
X98909D01*
Y30779D01*
X104472D01*
Y7739D01*
X104472Y7739D01*
X104475Y7723D01*
X104468Y7528D01*
X104363Y6460D01*
X104014Y5309D01*
X103447Y4248D01*
X102683Y3318D01*
X101753Y2554D01*
X100692Y1987D01*
X99541Y1638D01*
X98430Y1529D01*
X98425Y1529D01*
X8070D01*
X8068Y1529D01*
X7874Y1529D01*
X7681Y1538D01*
X6634Y1641D01*
X5442Y2003D01*
X4344Y2590D01*
X3381Y3381D01*
X2590Y4344D01*
X2003Y5442D01*
X1641Y6634D01*
X1538Y7681D01*
X1529Y7874D01*
X1529Y7874D01*
X1529Y8068D01*
Y36192D01*
X1693Y36302D01*
X2102Y36132D01*
X2898D01*
X3633Y36437D01*
X4196Y36999D01*
X4500Y37734D01*
Y38530D01*
X4196Y39265D01*
X4122Y39339D01*
Y48828D01*
X4672Y49378D01*
X10793D01*
X10867Y49305D01*
X11602Y49000D01*
X12398D01*
X13133Y49305D01*
X13695Y49867D01*
X14000Y50602D01*
Y51398D01*
X13695Y52133D01*
X13133Y52696D01*
X12398Y53000D01*
X11602D01*
X10867Y52696D01*
X10793Y52622D01*
X4000D01*
X3379Y52498D01*
X2853Y52147D01*
X1711Y51005D01*
X1529Y51080D01*
Y62560D01*
X1693Y62669D01*
X2102Y62500D01*
X2898D01*
X3633Y62805D01*
X3707Y62878D01*
X9850D01*
Y62516D01*
X18150D01*
Y62750D01*
X18347Y62825D01*
X18367Y62805D01*
X18865Y62598D01*
Y62402D01*
X18367Y62195D01*
X17805Y61633D01*
X17500Y60898D01*
Y60102D01*
X17805Y59367D01*
X18367Y58805D01*
X19102Y58500D01*
X19898D01*
X20633Y58805D01*
X21195Y59367D01*
X21500Y60102D01*
Y60898D01*
X21195Y61633D01*
X20633Y62195D01*
X20135Y62402D01*
Y62598D01*
X20633Y62805D01*
X21195Y63367D01*
X21500Y64102D01*
Y64898D01*
X21195Y65633D01*
X20633Y66195D01*
X20135Y66402D01*
Y66598D01*
X20633Y66804D01*
X21195Y67367D01*
X21500Y68102D01*
Y68898D01*
X21195Y69633D01*
X20633Y70196D01*
X19898Y70500D01*
X19102D01*
X18367Y70196D01*
X17805Y69633D01*
X17500Y68898D01*
Y68102D01*
X17805Y67367D01*
X18367Y66804D01*
X18865Y66598D01*
Y66402D01*
X18367Y66195D01*
X18347Y66175D01*
X18150Y66250D01*
Y66484D01*
X9850D01*
Y66122D01*
X4122D01*
Y72328D01*
X4304Y72403D01*
X6378Y70328D01*
Y69707D01*
X6305Y69633D01*
X6000Y68898D01*
Y68102D01*
X6305Y67367D01*
X6867Y66804D01*
X7602Y66500D01*
X8398D01*
X9133Y66804D01*
X9696Y67367D01*
X10000Y68102D01*
Y68898D01*
X9696Y69633D01*
X9622Y69707D01*
Y71000D01*
X9498Y71621D01*
X9147Y72147D01*
X5803Y75491D01*
Y77016D01*
X6032D01*
Y79000D01*
X8032D01*
Y77016D01*
X9079D01*
X9188Y76852D01*
X9000Y76398D01*
Y75602D01*
X9305Y74867D01*
X9867Y74304D01*
X10602Y74000D01*
X11398D01*
X12133Y74304D01*
X12696Y74867D01*
X13000Y75602D01*
Y76398D01*
X12812Y76852D01*
X12921Y77016D01*
X13150D01*
Y80984D01*
X12748D01*
Y81249D01*
X13441D01*
Y80477D01*
D02*
G37*
%LPC*%
G36*
X90551Y147216D02*
Y147199D01*
X15748D01*
Y147216D01*
X14329Y147029D01*
X13006Y146482D01*
X11870Y145610D01*
X10999Y144474D01*
X10451Y143152D01*
X10264Y141732D01*
X10451Y140313D01*
X10999Y138990D01*
X11870Y137855D01*
X13006Y136983D01*
X14329Y136435D01*
X15748Y136248D01*
Y136266D01*
X51560D01*
X51670Y136102D01*
X51500Y135693D01*
Y134897D01*
X51805Y134162D01*
X52367Y133600D01*
X53102Y133295D01*
X53898D01*
X54633Y133600D01*
X55195Y134162D01*
X55500Y134897D01*
Y135693D01*
X55330Y136102D01*
X55440Y136266D01*
X60560D01*
X60669Y136102D01*
X60500Y135693D01*
Y134897D01*
X60804Y134162D01*
X61367Y133600D01*
X62102Y133295D01*
X62898D01*
X63633Y133600D01*
X64196Y134162D01*
X64500Y134897D01*
Y135693D01*
X64331Y136102D01*
X64440Y136266D01*
X73060D01*
X73169Y136102D01*
X73000Y135693D01*
Y134897D01*
X73304Y134162D01*
X73867Y133600D01*
X74602Y133295D01*
X75398D01*
X76133Y133600D01*
X76696Y134162D01*
X77000Y134897D01*
Y135693D01*
X76831Y136102D01*
X76940Y136266D01*
X90551D01*
Y136248D01*
X91970Y136435D01*
X93293Y136983D01*
X94429Y137855D01*
X95300Y138990D01*
X95848Y140313D01*
X96035Y141732D01*
X95848Y143152D01*
X95300Y144474D01*
X94429Y145610D01*
X93293Y146482D01*
X91970Y147029D01*
X90551Y147216D01*
D02*
G37*
G36*
X27898Y134500D02*
X27102D01*
X26367Y134195D01*
X25804Y133633D01*
X25500Y132898D01*
Y132102D01*
X25804Y131367D01*
X26367Y130805D01*
X27102Y130500D01*
X27898D01*
X28633Y130805D01*
X29195Y131367D01*
X29500Y132102D01*
Y132898D01*
X29195Y133633D01*
X28633Y134195D01*
X27898Y134500D01*
D02*
G37*
G36*
X99300Y130296D02*
X98774D01*
X97789Y130099D01*
X96954Y129541D01*
X96405Y128720D01*
X97520D01*
X97566Y128795D01*
X97624Y128880D01*
X97686Y128961D01*
X97753Y129039D01*
X97824Y129114D01*
X97899Y129185D01*
X97977Y129251D01*
X98058Y129314D01*
X98143Y129372D01*
X98231Y129426D01*
X98321Y129475D01*
X98414Y129519D01*
X98509Y129559D01*
X98606Y129593D01*
X98704Y129622D01*
X98804Y129646D01*
X98905Y129665D01*
X99007Y129678D01*
X99110Y129686D01*
X99217Y129689D01*
X99300D01*
Y130296D01*
D02*
G37*
G36*
X101579Y128705D02*
X101300D01*
Y127720D01*
Y126736D01*
X101579D01*
X101631Y126738D01*
X101682Y126742D01*
X101734Y126748D01*
X101784Y126758D01*
X101834Y126770D01*
X101884Y126784D01*
X101932Y126802D01*
X101980Y126821D01*
X102026Y126844D01*
X102072Y126868D01*
X102116Y126895D01*
X102158Y126924D01*
X102199Y126956D01*
X102238Y126989D01*
X102276Y127024D01*
X102311Y127062D01*
X102344Y127101D01*
X102376Y127142D01*
X102405Y127184D01*
X102432Y127228D01*
X102456Y127274D01*
X102479Y127320D01*
X102498Y127368D01*
X102516Y127416D01*
X102530Y127466D01*
X102542Y127516D01*
X102552Y127567D01*
X102558Y127618D01*
X102562Y127669D01*
X102564Y127720D01*
X102562Y127772D01*
X102558Y127823D01*
X102552Y127875D01*
X102542Y127925D01*
X102530Y127975D01*
X102516Y128025D01*
X102498Y128073D01*
X102479Y128121D01*
X102456Y128167D01*
X102432Y128213D01*
X102405Y128256D01*
X102376Y128299D01*
X102344Y128340D01*
X102311Y128379D01*
X102276Y128417D01*
X102238Y128452D01*
X102199Y128485D01*
X102158Y128517D01*
X102116Y128546D01*
X102072Y128573D01*
X102026Y128597D01*
X101980Y128620D01*
X101932Y128639D01*
X101884Y128657D01*
X101834Y128671D01*
X101784Y128683D01*
X101734Y128693D01*
X101682Y128699D01*
X101631Y128703D01*
X101579Y128705D01*
D02*
G37*
G36*
X97249Y126720D02*
X96405D01*
X96954Y125900D01*
X97249Y125702D01*
Y126720D01*
D02*
G37*
G36*
X21500Y126681D02*
X20122D01*
Y125500D01*
X21500D01*
Y126681D01*
D02*
G37*
G36*
X90670Y127136D02*
Y124784D01*
X91994D01*
Y125063D01*
X91817Y125952D01*
X91313Y126706D01*
X90670Y127136D01*
D02*
G37*
G36*
X88670Y127136D02*
X88027Y126706D01*
X87523Y125952D01*
X87346Y125063D01*
Y124784D01*
X88670D01*
Y127136D01*
D02*
G37*
G36*
X12984Y125150D02*
X12000D01*
Y123969D01*
X12984D01*
Y125150D01*
D02*
G37*
G36*
X10000D02*
X9016D01*
Y123969D01*
X10000D01*
Y125150D01*
D02*
G37*
G36*
X18972Y126878D02*
X14610D01*
Y122122D01*
X18972D01*
Y126878D01*
D02*
G37*
G36*
X12984Y121968D02*
X11000D01*
X9016D01*
Y120838D01*
X8788D01*
X8398Y121000D01*
X7602D01*
X6867Y120695D01*
X6305Y120133D01*
X6000Y119398D01*
Y118602D01*
X6305Y117867D01*
X6867Y117305D01*
X7602Y117000D01*
X8398D01*
X8819Y117174D01*
X9016Y117087D01*
Y116850D01*
X12984D01*
Y117193D01*
X14610D01*
Y116217D01*
X14969D01*
Y115067D01*
X14610D01*
Y110311D01*
X18972D01*
Y115067D01*
X18614D01*
Y116217D01*
X18972D01*
Y120972D01*
X14610D01*
Y120838D01*
X12984D01*
Y121968D01*
D02*
G37*
G36*
X91994Y122784D02*
X89670D01*
X87346D01*
Y122504D01*
X87523Y121615D01*
X87905Y121043D01*
X87799Y120846D01*
X86013D01*
Y120059D01*
X89670D01*
X93328D01*
Y120846D01*
X91541D01*
X91436Y121043D01*
X91817Y121615D01*
X91994Y122504D01*
Y122784D01*
D02*
G37*
G36*
X97249Y102180D02*
X96954Y101982D01*
X96405Y101161D01*
X97249D01*
Y102180D01*
D02*
G37*
G36*
X91994Y103098D02*
X90670D01*
Y100745D01*
X91313Y101175D01*
X91817Y101929D01*
X91994Y102819D01*
Y103098D01*
D02*
G37*
G36*
X88670D02*
X87346D01*
Y102819D01*
X87523Y101929D01*
X88027Y101175D01*
X88670Y100745D01*
Y103098D01*
D02*
G37*
G36*
X5229Y98382D02*
X3654D01*
Y97693D01*
X5229D01*
Y98382D01*
D02*
G37*
G36*
X97522Y99161D02*
X96405D01*
X96954Y98341D01*
X97789Y97782D01*
X98774Y97586D01*
X99300D01*
Y98193D01*
X99217D01*
X99114Y98196D01*
X99012Y98204D01*
X98909Y98217D01*
X98808Y98236D01*
X98708Y98260D01*
X98609Y98289D01*
X98512Y98324D01*
X98417Y98363D01*
X98324Y98408D01*
X98233Y98457D01*
X98145Y98510D01*
X98060Y98569D01*
X97979Y98632D01*
X97900Y98699D01*
X97825Y98769D01*
X97754Y98844D01*
X97688Y98923D01*
X97625Y99004D01*
X97566Y99089D01*
X97522Y99161D01*
D02*
G37*
G36*
X80500Y81631D02*
X79516D01*
Y80450D01*
X80500D01*
Y81631D01*
D02*
G37*
G36*
X78484D02*
X77500D01*
Y80450D01*
X78484D01*
Y81631D01*
D02*
G37*
G36*
X79984Y118532D02*
X79000D01*
Y117350D01*
X79984D01*
Y118532D01*
D02*
G37*
G36*
X77000D02*
X76016D01*
Y117350D01*
X77000D01*
Y118532D01*
D02*
G37*
G36*
X77012Y115921D02*
X74847D01*
Y114740D01*
X77012D01*
Y115921D01*
D02*
G37*
G36*
X60150Y115500D02*
X58969D01*
Y114516D01*
X60150D01*
Y115500D01*
D02*
G37*
G36*
X60150Y113484D02*
X58969D01*
Y112500D01*
X60150D01*
Y113484D01*
D02*
G37*
G36*
X53031Y105500D02*
X51850D01*
Y104516D01*
X53031D01*
Y105500D01*
D02*
G37*
G36*
Y103484D02*
X51850D01*
Y102500D01*
X53031D01*
Y103484D01*
D02*
G37*
G36*
Y100500D02*
X51850D01*
Y99516D01*
X53031D01*
Y100500D01*
D02*
G37*
G36*
X44150Y103484D02*
X42968D01*
Y102500D01*
X44150D01*
Y103484D01*
D02*
G37*
G36*
Y100500D02*
X42968D01*
Y99516D01*
X44150D01*
Y100500D01*
D02*
G37*
G36*
X28484Y96000D02*
X27500D01*
Y94819D01*
X28484D01*
Y96000D01*
D02*
G37*
G36*
X27500Y93181D02*
Y92000D01*
X28484D01*
Y93181D01*
X27500D01*
D02*
G37*
G36*
X101500Y77031D02*
X100516D01*
Y75850D01*
X101500D01*
Y77031D01*
D02*
G37*
G36*
Y75150D02*
X100516D01*
Y73968D01*
X101500D01*
Y75150D01*
D02*
G37*
G36*
X27150Y80984D02*
X25969D01*
Y80000D01*
X27150D01*
Y80984D01*
D02*
G37*
G36*
Y78000D02*
X25969D01*
Y77016D01*
X27150D01*
Y78000D01*
D02*
G37*
G36*
X17984Y73532D02*
X17000D01*
Y72350D01*
X17984D01*
Y73532D01*
D02*
G37*
G36*
X15000D02*
X14016D01*
Y72350D01*
X15000D01*
Y73532D01*
D02*
G37*
G36*
X77984Y63032D02*
X77000D01*
Y61850D01*
X77984D01*
Y63032D01*
D02*
G37*
G36*
X75000D02*
X74016D01*
Y61850D01*
X75000D01*
Y63032D01*
D02*
G37*
G36*
X98453Y64953D02*
X90547D01*
Y57047D01*
X91181D01*
X91257Y56865D01*
X89376Y54984D01*
X86624D01*
X86322Y55286D01*
Y57488D01*
X86927Y57837D01*
X87663Y58573D01*
X88183Y59474D01*
X88453Y60480D01*
Y61520D01*
X88183Y62526D01*
X87663Y63427D01*
X86927Y64163D01*
X86026Y64683D01*
X85020Y64953D01*
X83980D01*
X82974Y64683D01*
X82073Y64163D01*
X81337Y63427D01*
X80817Y62526D01*
X80547Y61520D01*
Y60480D01*
X80817Y59474D01*
X81337Y58573D01*
X82073Y57837D01*
X82678Y57488D01*
Y54532D01*
X82678Y54532D01*
X82816Y53834D01*
X83211Y53243D01*
X83850Y52604D01*
Y51016D01*
X84158D01*
Y46075D01*
X82665D01*
Y40925D01*
X89193D01*
Y46075D01*
X87803D01*
Y51016D01*
X92150D01*
Y52604D01*
X94030Y54484D01*
X94197Y54372D01*
X94000Y53898D01*
Y53102D01*
X94096Y52870D01*
Y52465D01*
X92614D01*
Y46921D01*
X93760D01*
Y45968D01*
X91039D01*
Y37276D01*
X93760D01*
Y36323D01*
X92614D01*
Y30779D01*
X93760D01*
Y29917D01*
X93760Y29917D01*
X93899Y29220D01*
X94294Y28629D01*
X96127Y26796D01*
X96305Y26367D01*
X96867Y25804D01*
X97602Y25500D01*
X98398D01*
X99133Y25804D01*
X99695Y26367D01*
X100000Y27102D01*
Y27898D01*
X99695Y28633D01*
X99133Y29195D01*
X98704Y29373D01*
X97495Y30583D01*
X97576Y30779D01*
X98551D01*
Y36323D01*
X97405D01*
Y41622D01*
Y46921D01*
X98551D01*
Y52465D01*
X97949D01*
X97817Y52661D01*
X98000Y53102D01*
Y53898D01*
X97695Y54633D01*
X97133Y55195D01*
X96398Y55500D01*
X95602D01*
X95013Y55256D01*
X94883Y55415D01*
X95121Y55771D01*
X95259Y56468D01*
X95259Y56469D01*
Y57047D01*
X98453D01*
Y64953D01*
D02*
G37*
G36*
X59031Y55500D02*
X57850D01*
Y54516D01*
X59031D01*
Y55500D01*
D02*
G37*
G36*
X80335Y42335D02*
X78071D01*
Y40760D01*
X80335D01*
Y42335D01*
D02*
G37*
G36*
X76071D02*
X73807D01*
Y40760D01*
X76071D01*
Y42335D01*
D02*
G37*
G36*
X80335Y38760D02*
X78071D01*
Y37185D01*
X80335D01*
Y38760D01*
D02*
G37*
G36*
X76071D02*
X73807D01*
Y37185D01*
X76071D01*
Y38760D01*
D02*
G37*
G36*
X42250Y43622D02*
X39000D01*
Y36122D01*
X42250D01*
Y43622D01*
D02*
G37*
G36*
X37000D02*
X33750D01*
Y36122D01*
X37000D01*
Y43622D01*
D02*
G37*
G36*
X20298Y48308D02*
X5828D01*
Y34977D01*
Y34071D01*
X20298D01*
Y48308D01*
D02*
G37*
G36*
X72250Y43622D02*
X63750D01*
Y26622D01*
X72250D01*
Y43622D01*
D02*
G37*
G36*
X42250Y34122D02*
X39000D01*
Y26622D01*
X42250D01*
Y34122D01*
D02*
G37*
G36*
X37000D02*
X33750D01*
Y26622D01*
X37000D01*
Y34122D01*
D02*
G37*
G36*
X90551Y21232D02*
Y21214D01*
X15748D01*
Y21232D01*
X14329Y21045D01*
X13006Y20497D01*
X11870Y19626D01*
X10999Y18490D01*
X10451Y17167D01*
X10264Y15748D01*
X10451Y14329D01*
X10999Y13006D01*
X11870Y11870D01*
X13006Y10999D01*
X14329Y10451D01*
X15748Y10264D01*
Y10282D01*
X90551D01*
Y10264D01*
X91970Y10451D01*
X93293Y10999D01*
X94429Y11870D01*
X95300Y13006D01*
X95848Y14329D01*
X96035Y15748D01*
X95848Y17167D01*
X95300Y18490D01*
X94429Y19626D01*
X93293Y20497D01*
X91970Y21045D01*
X90551Y21232D01*
D02*
G37*
%LPD*%
D11*
X16422Y29135D02*
Y29578D01*
D17*
X101878Y33551D02*
D03*
X95583D02*
D03*
Y49693D02*
D03*
X101878D02*
D03*
D18*
X93122Y41622D02*
D03*
D19*
X57968Y116500D02*
D03*
X54031D02*
D03*
X24969Y79000D02*
D03*
X21032D02*
D03*
X44969Y47000D02*
D03*
X41032D02*
D03*
X54969D02*
D03*
X51032D02*
D03*
X12032Y64500D02*
D03*
X15969D02*
D03*
X70410Y100500D02*
D03*
X74347D02*
D03*
X54031Y101500D02*
D03*
X57968D02*
D03*
X54031Y106500D02*
D03*
X57968D02*
D03*
X70410Y95500D02*
D03*
X74347D02*
D03*
X57968Y111500D02*
D03*
X54031D02*
D03*
X61032Y47000D02*
D03*
X64969D02*
D03*
X86032Y53000D02*
D03*
X89969D02*
D03*
X38032Y101500D02*
D03*
X41969D02*
D03*
X63968Y56500D02*
D03*
X60031D02*
D03*
X7032Y79000D02*
D03*
X10968D02*
D03*
D20*
X94500Y80522D02*
D03*
Y70722D02*
D03*
D21*
X81500Y73654D02*
D03*
Y77591D02*
D03*
X86500Y73654D02*
D03*
Y77591D02*
D03*
X11000Y119032D02*
D03*
Y122968D02*
D03*
X102500Y78031D02*
D03*
Y81968D02*
D03*
Y72969D02*
D03*
Y69032D02*
D03*
X29000Y66531D02*
D03*
Y70468D02*
D03*
X76000Y67968D02*
D03*
Y64031D02*
D03*
X76500Y86568D02*
D03*
Y82631D02*
D03*
X81500Y86568D02*
D03*
Y82631D02*
D03*
X26500Y100937D02*
D03*
Y97000D02*
D03*
X16000Y78469D02*
D03*
Y74532D02*
D03*
X26500Y91000D02*
D03*
Y87063D02*
D03*
X79500Y100268D02*
D03*
Y96332D02*
D03*
X78000Y119532D02*
D03*
Y123468D02*
D03*
D22*
X85929Y43500D02*
D03*
X77071Y39760D02*
D03*
Y47240D02*
D03*
D23*
X68000Y35122D02*
D03*
X58000D02*
D03*
X48000D02*
D03*
X38000D02*
D03*
D24*
X100300Y117878D02*
D03*
Y110004D02*
D03*
D25*
X89670Y119059D02*
D03*
Y116500D02*
D03*
Y113941D02*
D03*
Y111382D02*
D03*
Y108823D02*
D03*
D26*
X22500Y124500D02*
D03*
D27*
X28209D02*
D03*
Y118595D02*
D03*
Y112689D02*
D03*
X16791D02*
D03*
Y118595D02*
D03*
Y124500D02*
D03*
D28*
X6229Y96693D02*
D03*
Y94725D02*
D03*
Y92756D02*
D03*
Y90788D02*
D03*
Y88819D02*
D03*
Y86851D02*
D03*
X21929D02*
D03*
Y88819D02*
D03*
Y90788D02*
D03*
Y92756D02*
D03*
Y94725D02*
D03*
Y96693D02*
D03*
D29*
X9157Y83922D02*
D03*
X11126D02*
D03*
X13094D02*
D03*
X15063D02*
D03*
X17031D02*
D03*
X19000D02*
D03*
Y99622D02*
D03*
X17031D02*
D03*
X15063D02*
D03*
X13094D02*
D03*
X11126D02*
D03*
X9157D02*
D03*
D30*
X63827Y61890D02*
D03*
X61858D02*
D03*
X59890D02*
D03*
X57921D02*
D03*
X55953D02*
D03*
X53984D02*
D03*
X52016D02*
D03*
X50047D02*
D03*
X48079D02*
D03*
X46110D02*
D03*
X44142D02*
D03*
X42173D02*
D03*
Y95354D02*
D03*
X44142D02*
D03*
X46110D02*
D03*
X48079D02*
D03*
X50047D02*
D03*
X52016D02*
D03*
X53984D02*
D03*
X55953D02*
D03*
X57921D02*
D03*
X59890D02*
D03*
X61858D02*
D03*
X63827D02*
D03*
D31*
X36268Y67795D02*
D03*
Y69764D02*
D03*
Y71732D02*
D03*
Y73701D02*
D03*
Y75669D02*
D03*
Y77638D02*
D03*
Y79606D02*
D03*
Y81575D02*
D03*
Y83543D02*
D03*
Y85512D02*
D03*
Y87480D02*
D03*
Y89449D02*
D03*
X69732D02*
D03*
Y87480D02*
D03*
Y85512D02*
D03*
Y83543D02*
D03*
Y81575D02*
D03*
Y79606D02*
D03*
Y77638D02*
D03*
Y75669D02*
D03*
Y73701D02*
D03*
Y71732D02*
D03*
Y69764D02*
D03*
Y67795D02*
D03*
D32*
X66988Y113740D02*
D03*
Y110000D02*
D03*
Y106260D02*
D03*
X78012D02*
D03*
Y113740D02*
D03*
D49*
X50891Y116000D02*
X51391Y116500D01*
X50669Y116000D02*
X50891D01*
X51391Y116500D02*
X54031D01*
X79106Y96741D02*
X79500Y96348D01*
X77480Y96741D02*
X79106D01*
X79500Y96332D02*
Y96348D01*
X76722Y97500D02*
X77480Y96741D01*
X21929Y96693D02*
X26193D01*
X26500Y97000D01*
X59500Y51500D02*
X61032Y49968D01*
Y47000D02*
Y49968D01*
X56000Y51500D02*
X59500D01*
X51032Y47000D02*
Y49468D01*
X49500Y51000D02*
X51032Y49468D01*
X44865Y51000D02*
X49500D01*
X40492Y47394D02*
X40886Y47000D01*
X41032D01*
X40492Y47394D02*
Y64704D01*
X42173Y53692D02*
X44865Y51000D01*
X42173Y53692D02*
Y61890D01*
X61858Y59358D02*
Y61890D01*
X60228Y56500D02*
X60622Y56894D01*
Y58122D01*
X61858Y59358D01*
X60031Y56500D02*
X60228D01*
X63827Y56642D02*
X63968Y56500D01*
X63827Y56642D02*
Y61890D01*
X41969Y101500D02*
X42165D01*
X44142Y95354D02*
Y99524D01*
X42165Y101500D02*
X44142Y99524D01*
X42173Y95354D02*
Y97126D01*
X39374D02*
X42173D01*
X38032Y98469D02*
X39374Y97126D01*
X38032Y98469D02*
Y101500D01*
X53984Y53516D02*
X56000Y51500D01*
X26500Y100937D02*
Y101134D01*
X24929Y102705D02*
X26500Y101134D01*
X18178Y102705D02*
X24929D01*
X28969Y87032D02*
X29000Y87000D01*
X26531Y87032D02*
X29469D01*
X21032Y75468D02*
Y79000D01*
X17859Y81158D02*
X18676D01*
X20835Y79000D01*
X17031Y83922D02*
X17130Y83824D01*
Y81888D02*
Y83824D01*
Y81888D02*
X17859Y81158D01*
X20835Y79000D02*
X21032D01*
X76500Y97457D02*
Y97500D01*
X74347Y95500D02*
X74543D01*
X76500Y97457D01*
Y97500D02*
X76722D01*
X76500Y81575D02*
X84075D01*
X84129Y81629D01*
X76500Y81575D02*
Y82631D01*
X48079Y95354D02*
Y118308D01*
X47387Y119000D02*
X48079Y118308D01*
X10984Y76016D02*
X11000Y76000D01*
X10984Y76016D02*
Y79358D01*
X11126Y79500D01*
Y83922D01*
X15606Y78862D02*
X16000Y78469D01*
X15606Y78862D02*
Y79934D01*
X15063Y80477D02*
X15606Y79934D01*
X15063Y80477D02*
Y83922D01*
X28078D02*
X30425Y81575D01*
X19000Y83922D02*
X28078D01*
X30425Y81575D02*
X36268D01*
X51343Y90657D02*
X53843D01*
X50047Y91953D02*
X51343Y90657D01*
X53843D02*
X54000Y90500D01*
X50047Y91953D02*
Y95354D01*
X57632Y66095D02*
X59591D01*
X55953Y61890D02*
Y64416D01*
X57632Y66095D01*
X59591D02*
X59748Y66252D01*
X69732Y81575D02*
X76437D01*
X76446Y81584D01*
X57772Y106500D02*
X58000Y106728D01*
Y107728D01*
X54228Y111500D02*
X58000Y107728D01*
X54031Y111500D02*
X54228D01*
X57921Y95354D02*
Y101453D01*
X57968Y101500D01*
X64764Y67312D02*
Y69072D01*
Y67312D02*
X66783Y65293D01*
X53984Y53516D02*
Y61890D01*
X75000Y86285D02*
X76216D01*
X76500Y86568D01*
X72259Y83543D02*
X75000Y86285D01*
X69732Y83543D02*
X72259D01*
X77768Y71732D02*
X78778Y70722D01*
X69732Y71732D02*
X77768D01*
X78778Y70722D02*
X93000D01*
X81453Y73701D02*
X81500Y73654D01*
X21032Y75468D02*
X22799Y73701D01*
X36268D01*
X43899Y108101D02*
X46110Y105890D01*
X22500Y108101D02*
X43899D01*
X9157Y104657D02*
X12601Y108101D01*
X13500Y105000D02*
X33000D01*
X12601Y108101D02*
X25000D01*
X64000Y77000D02*
Y77500D01*
X46110Y95354D02*
Y105890D01*
X29032Y70500D02*
X30500D01*
X29000Y70468D02*
X29032Y70500D01*
X30500D02*
X31236Y69764D01*
X36268D01*
X4000Y51000D02*
X12000D01*
X2500Y49500D02*
X4000Y51000D01*
X2500Y38132D02*
Y49500D01*
X65456Y69764D02*
X69732D01*
X64764Y69072D02*
X65456Y69764D01*
X29000Y66531D02*
X31532D01*
X32795Y67795D01*
X36268D01*
X76000Y67968D02*
X76016Y67984D01*
X79484D02*
X79500Y68000D01*
X69732Y73701D02*
X81453D01*
X8000Y68500D02*
Y71000D01*
X26000Y87063D02*
X26032Y87032D01*
X4181Y74819D02*
X8000Y71000D01*
X4181Y74819D02*
Y82181D01*
X2500Y64500D02*
X12032D01*
X15969D02*
X19500D01*
X2500D02*
Y85659D01*
X3692Y86851D01*
X4181Y82181D02*
X5922Y83922D01*
X9157D01*
X3692Y86851D02*
X6229D01*
X33000Y119000D02*
X47387D01*
X28209D02*
X33000D01*
X11126Y99622D02*
Y102626D01*
X13500Y105000D01*
X33000Y111000D02*
Y119000D01*
X9157Y99622D02*
Y104657D01*
X17031Y101558D02*
X18178Y102705D01*
X17031Y99622D02*
Y101558D01*
X11000Y119032D02*
X11016Y119016D01*
X16776D02*
X16791Y119000D01*
X28209Y124906D02*
Y125102D01*
Y124709D02*
Y124906D01*
Y125102D02*
X32272Y129165D01*
X22500Y119000D02*
X28209Y124709D01*
X22500Y108101D02*
Y119000D01*
X63457Y129165D02*
X68000Y124622D01*
X32272Y129165D02*
X63457D01*
X46000Y57500D02*
X46110Y57610D01*
Y61890D01*
X38794Y71732D02*
X40500Y70026D01*
Y64712D02*
Y70026D01*
X40492Y64704D02*
X40500Y64712D01*
X36268Y71732D02*
X38794D01*
X22429Y86851D02*
X25985D01*
X75327Y67795D02*
X75516Y67984D01*
X64000Y77500D02*
X66106Y79606D01*
X69732D01*
Y67795D02*
X75327D01*
X76000Y92500D02*
X77500D01*
X72949Y89449D02*
X76000Y92500D01*
X69732Y89449D02*
X72949D01*
D50*
X81697Y86175D02*
X83210D01*
X84885Y84500D01*
X85000D01*
X47387Y119000D02*
X52378D01*
X58000Y124622D01*
X58228Y113740D02*
X65988D01*
X58147Y113821D02*
X58228Y113740D01*
X57968Y116500D02*
X58147Y116322D01*
Y113821D02*
Y116322D01*
X60000Y54500D02*
X60016Y54516D01*
Y56484D02*
X60031Y56500D01*
X60016Y54516D02*
Y56484D01*
X63984Y54516D02*
X64000Y54500D01*
X63968Y56500D02*
X63984Y56484D01*
Y54516D02*
Y56484D01*
X26500Y66500D02*
X26516Y66516D01*
X28984D02*
X29000Y66531D01*
X26516Y66516D02*
X28984D01*
X10984Y119016D02*
X11000Y119032D01*
X8016Y119016D02*
X10984D01*
X8000Y119000D02*
X8016Y119016D01*
X38016Y101516D02*
Y103984D01*
Y101516D02*
X38032Y101500D01*
X38000Y104000D02*
X38016Y103984D01*
X83792Y108823D02*
X89670D01*
X82500Y110000D02*
X82615D01*
X83792Y108823D01*
X54969Y47000D02*
X57000D01*
X58000Y46000D01*
Y35122D02*
Y46000D01*
X46500Y47000D02*
X48000Y45500D01*
X44969Y47000D02*
X46500D01*
X48000Y35122D02*
Y45500D01*
X85980Y44551D02*
Y53000D01*
X83000Y59828D02*
Y61000D01*
X85929Y44500D02*
X85980Y44551D01*
X76831Y47000D02*
X77071Y47240D01*
X64969Y47000D02*
X76831D01*
X65868Y113620D02*
X65988Y113740D01*
X57968Y111500D02*
X58147Y111679D01*
Y113659D02*
X58228Y113740D01*
X58147Y111679D02*
Y113659D01*
X57968Y101500D02*
Y106303D01*
X93000Y80522D02*
X93034Y80556D01*
X86500Y77787D02*
X86697Y77984D01*
X86894D01*
X88388Y79478D01*
X91888D01*
X92966Y80556D01*
X86500Y77591D02*
Y77787D01*
X70455Y95500D02*
Y96455D01*
X70410Y95500D02*
X70455D01*
X70278D02*
X70410D01*
X101878Y33551D02*
Y40495D01*
X101325Y47122D02*
X101406Y47203D01*
X101325Y41048D02*
Y47122D01*
Y41048D02*
X101878Y40495D01*
X101406Y47203D02*
Y49221D01*
X101878Y49693D01*
X81500Y86372D02*
Y86568D01*
Y86372D02*
X81697Y86175D01*
X76500Y86568D02*
X81500D01*
X83500Y73654D02*
X86500D01*
X81500D02*
X83500D01*
X81500Y77591D02*
X86500D01*
X70081Y95303D02*
X70278Y95500D01*
X70000Y92500D02*
X70081Y92581D01*
Y95303D01*
X74347Y100500D02*
X79303D01*
X79500Y100303D01*
Y100268D02*
Y100303D01*
X100469Y69500D02*
X100500Y69532D01*
X95722Y69500D02*
X100469D01*
X102469D01*
X102500Y69532D01*
X70455Y100045D02*
Y106000D01*
X65988Y106260D02*
X70195D01*
X70455Y106000D01*
X70410Y100000D02*
X70455Y100045D01*
X70410Y96500D02*
Y100000D01*
X95583Y29917D02*
X98000Y27500D01*
X95583Y33551D02*
Y41622D01*
Y29917D02*
Y33551D01*
X76016Y67984D02*
X79484D01*
X90165Y53000D02*
X90362Y53197D01*
Y53394D02*
X93437Y56468D01*
Y59937D02*
X94500Y61000D01*
X93437Y56468D02*
Y59937D01*
X89969Y53000D02*
X90165D01*
X90362Y53197D02*
Y53394D01*
X95919Y50029D02*
Y53419D01*
X95583Y49693D02*
X95919Y50029D01*
Y53419D02*
X96000Y53500D01*
X85980Y53000D02*
X86032D01*
X85835D02*
X85980D01*
Y53051D02*
X86032Y53000D01*
X84500Y54532D02*
X85638Y53394D01*
X84500Y54532D02*
Y61000D01*
X85638Y53197D02*
X85835Y53000D01*
X85638Y53197D02*
Y53394D01*
X93034Y80556D02*
X93966D01*
X94500Y80522D02*
X95446Y81468D01*
X102000D01*
X16791Y113094D02*
Y119000D01*
X11016Y119016D02*
X16776D01*
X92966Y80556D02*
X93000Y80522D01*
X70410Y96500D02*
X70455Y96455D01*
X95583Y41622D02*
Y49693D01*
X93122Y41622D02*
X95583D01*
D51*
X66988Y110000D02*
X71000D01*
D52*
X68000Y124622D02*
D03*
X58000D02*
D03*
X48000D02*
D03*
X84500Y61000D02*
D03*
D53*
X38000Y124622D02*
D03*
X94500Y61000D02*
D03*
D54*
X100300Y127720D02*
D03*
Y100161D02*
D03*
D55*
X89670Y123784D02*
D03*
Y104098D02*
D03*
D56*
X19500Y60500D02*
D03*
X15600Y61000D02*
D03*
X85000Y84500D02*
D03*
X50669Y116000D02*
D03*
X84500Y93622D02*
D03*
X34500Y62000D02*
D03*
X6000Y145000D02*
D03*
X76500Y31000D02*
D03*
X34500Y46000D02*
D03*
X39500Y23500D02*
D03*
X49500D02*
D03*
X59500D02*
D03*
X69500D02*
D03*
X82000Y28500D02*
D03*
X100329Y16699D02*
D03*
X102000Y93500D02*
D03*
X90922Y93602D02*
D03*
X100000Y138500D02*
D03*
X5500Y113000D02*
D03*
X5000Y125500D02*
D03*
X5812Y136514D02*
D03*
X11319Y148755D02*
D03*
X21319D02*
D03*
X31319D02*
D03*
X41319D02*
D03*
X51319D02*
D03*
X61319D02*
D03*
X71319D02*
D03*
X81319D02*
D03*
X91319D02*
D03*
X85819Y154133D02*
D03*
X75819D02*
D03*
X65819D02*
D03*
X55819D02*
D03*
X45819D02*
D03*
X35819D02*
D03*
X25819D02*
D03*
X15819D02*
D03*
X6819D02*
D03*
X96319D02*
D03*
X94500Y9000D02*
D03*
X99000Y3500D02*
D03*
X14000Y9000D02*
D03*
X24000D02*
D03*
X34000D02*
D03*
X44000D02*
D03*
X54000D02*
D03*
X64000D02*
D03*
X74000D02*
D03*
X84000D02*
D03*
X94500Y133622D02*
D03*
X89500Y63622D02*
D03*
Y23622D02*
D03*
Y3622D02*
D03*
X84500Y133622D02*
D03*
X79500Y63622D02*
D03*
X84500Y33622D02*
D03*
X79500Y23622D02*
D03*
Y3622D02*
D03*
X69500D02*
D03*
X64500Y73622D02*
D03*
X59500Y3622D02*
D03*
X49500D02*
D03*
X44500Y73622D02*
D03*
X39500Y3622D02*
D03*
X34500Y93622D02*
D03*
Y53622D02*
D03*
X29500Y3622D02*
D03*
X24500Y133622D02*
D03*
X19500Y3622D02*
D03*
X14500Y133622D02*
D03*
X60000Y54500D02*
D03*
X64000D02*
D03*
X26500Y66500D02*
D03*
X8000Y119000D02*
D03*
X42000Y104000D02*
D03*
X38000D02*
D03*
X81500Y121000D02*
D03*
X83000Y114000D02*
D03*
X82500Y110000D02*
D03*
X37500Y94500D02*
D03*
X29500Y87000D02*
D03*
X94500Y114000D02*
D03*
X72000Y118000D02*
D03*
Y120500D02*
D03*
X51000Y106500D02*
D03*
X68994Y110000D02*
D03*
X71000D02*
D03*
X66988D02*
D03*
X76500Y79500D02*
D03*
X84129Y81629D02*
D03*
X7000Y76000D02*
D03*
X11000D02*
D03*
X14000Y88500D02*
D03*
X82000Y93500D02*
D03*
X78000Y128000D02*
D03*
X53500Y135295D02*
D03*
X62500D02*
D03*
X75000D02*
D03*
X76000Y126500D02*
D03*
X80000D02*
D03*
X62000Y111500D02*
D03*
Y116000D02*
D03*
X60000Y77000D02*
D03*
X57000Y78500D02*
D03*
Y81000D02*
D03*
X54000Y90500D02*
D03*
X59748Y66252D02*
D03*
X72500Y53000D02*
D03*
X81500Y123500D02*
D03*
X74000Y117000D02*
D03*
X61500Y105500D02*
D03*
X63000Y119000D02*
D03*
X74000Y119500D02*
D03*
Y122000D02*
D03*
X63306Y113723D02*
D03*
X60805Y113757D02*
D03*
X58228Y113740D02*
D03*
X64000Y100000D02*
D03*
X66783Y65293D02*
D03*
X101325Y47122D02*
D03*
X74000Y103500D02*
D03*
X70000Y92500D02*
D03*
X38000Y30500D02*
D03*
Y35122D02*
D03*
Y40000D02*
D03*
X68000Y30500D02*
D03*
Y35122D02*
D03*
Y40000D02*
D03*
X51000Y101500D02*
D03*
X33000Y105000D02*
D03*
X45000Y115000D02*
D03*
Y111000D02*
D03*
X76500Y97500D02*
D03*
X41500Y90000D02*
D03*
X37000Y113500D02*
D03*
X14000Y95000D02*
D03*
X17000Y92000D02*
D03*
X11000D02*
D03*
X93500Y122000D02*
D03*
X8000Y123000D02*
D03*
X64000Y77000D02*
D03*
X29500Y91000D02*
D03*
Y97000D02*
D03*
X3000D02*
D03*
X87500Y38500D02*
D03*
X98000Y75500D02*
D03*
X89000Y47500D02*
D03*
X88500Y33000D02*
D03*
X77000Y36000D02*
D03*
X76000Y60500D02*
D03*
X48500Y73500D02*
D03*
X42500Y83500D02*
D03*
X46500Y78500D02*
D03*
X64000Y87500D02*
D03*
X27500Y132500D02*
D03*
X81500Y130500D02*
D03*
X42500Y135000D02*
D03*
X22500Y128000D02*
D03*
X16000Y71500D02*
D03*
X26500Y70500D02*
D03*
X28000Y79000D02*
D03*
X3385Y26582D02*
D03*
X16422Y29135D02*
D03*
X11934Y32468D02*
D03*
X12000Y51000D02*
D03*
X2500Y38132D02*
D03*
X98000Y27500D02*
D03*
X96000Y53500D02*
D03*
X19500Y68500D02*
D03*
Y64500D02*
D03*
X8000Y68500D02*
D03*
X2500Y64500D02*
D03*
X33000Y111000D02*
D03*
X46000Y57500D02*
D03*
X79500Y68000D02*
D03*
X77500Y92500D02*
D03*
D57*
X99299Y150480D02*
D03*
X7000Y7000D02*
D03*
M02*
