M48
;Layer_Color=9474304
;FILE_FORMAT=2:5
INCH,LZ
;TYPE=PLATED
T1F00S00C0.01000
T4F00S00C0.03543
T5F00S00C0.03740
T6F00S00C0.03937
%
T01
X0014Y0009
X0024
X00195Y0003622
X00295
X0034Y0009
X0044
X00395Y0003622
X00495
X0054Y0009
X00495Y00235
X00395
X0038Y00305
Y0035122
Y004
X00345Y0046
Y0053622
Y0062
X00265Y00665
Y00705
X00195Y00685
Y00645
Y00605
X00156Y0061
X0016Y00715
X0011Y0076
X0007
X0008Y00685
X00025Y00645
X0012Y0051
X0011934Y0032468
X0016422Y0029135
X0003385Y0026582
X00025Y0038132
X0003Y0097
X0014Y0095
X0017Y0092
X0011
X0014Y00885
X00295Y0087
Y0091
Y0097
X00345Y0093622
X00375Y00945
X00415Y009
X00425Y00835
X00465Y00785
X00445Y0073622
X00485Y00735
X0046Y00575
X0028Y0079
X0054Y00905
X0051Y01015
X0064Y01
Y00875
Y0077
X00645Y0073622
X006Y0077
X0057Y00785
Y0081
X0059748Y0066252
X0066783Y0065293
X0064Y00545
X006
X00725Y0053
X0076Y00605
X00795Y0063622
Y0068
X00895Y0063622
X0089Y00475
X00875Y00385
X00885Y0033
X00845Y0033622
X0082Y00285
X00795Y0023622
X00895
X0098Y00275
X0100329Y0016699
X00945Y0009
X0099Y00035
X00895Y0003622
X00795
X0084Y0009
X0074
X00695Y0003622
X00595
X0064Y0009
X00595Y00235
X00695
X0068Y00305
Y0035122
Y004
X0077Y0036
X00765Y0031
X0101325Y0047122
X0096Y00535
X0098Y00755
X0084129Y0081629
X0085Y00845
X00845Y0093622
X0082Y00935
X00775Y00925
X00765Y00975
X007Y00925
X00765Y00795
X0090922Y0093602
X0102Y00935
X00945Y0114
X00935Y0122
X00945Y0133622
X00845
X00815Y01305
X008Y01265
X0078Y0128
X0076Y01265
X0074Y0122
Y01195
Y0117
X0072Y0118
Y01205
X00815Y0121
Y01235
X0083Y0114
X00825Y011
X0071
X0068994
X0066988
X0062Y01115
X0060805Y0113757
X0063306Y0113723
X0062Y0116
X0063Y0119
X0058228Y011374
X00615Y01055
X0074Y01035
X0075Y0135295
X00625
X0061319Y0148755
X0065819Y0154133
X0075819
X0071319Y0148755
X0081319
X0085819Y0154133
X0096319
X0091319Y0148755
X01Y01385
X0055819Y0154133
X0051319Y0148755
X0041319
X0045819Y0154133
X0035819
X0031319Y0148755
X0021319
X0025819Y0154133
X0015819
X0006819
X0011319Y0148755
X0006Y0145
X0005812Y0136514
X00145Y0133622
X00245
X00275Y01325
X00225Y0128
X0008Y0123
Y0119
X00055Y0113
X0005Y01255
X0033Y0111
Y0105
X0038Y0104
X0042
X0045Y0111
Y0115
X0050669Y0116
X0051Y01065
X0037Y01135
X00425Y0135
X00535Y0135295
T04
X0007Y0007
X0099299Y015048
T05
X0058Y0124622
X0068
X0048
X0038
T06
X00845Y0061
X00945
M30
