G04*
G04 #@! TF.GenerationSoftware,Altium Limited,Altium Designer,22.3.1 (43)*
G04*
G04 Layer_Color=16711935*
%FSLAX25Y25*%
%MOIN*%
G70*
G04*
G04 #@! TF.SameCoordinates,8BB9F333-D91B-4341-8B3B-76DA7BD7A395*
G04*
G04*
G04 #@! TF.FilePolarity,Negative*
G04*
G01*
G75*
%ADD32R,0.04331X0.02362*%
%ADD35R,0.03362X0.02969*%
%ADD37R,0.02969X0.03362*%
%ADD43C,0.06906*%
%ADD44R,0.06906X0.06906*%
%ADD45O,0.07102X0.04051*%
%ADD46O,0.03559X0.06118*%
%ADD47C,0.03000*%
%ADD48C,0.05724*%
%ADD58R,0.01400X0.02550*%
%ADD62R,0.02953X0.01181*%
%ADD63R,0.01181X0.02953*%
%ADD64R,0.02550X0.01400*%
%ADD67R,0.04150X0.04150*%
%ADD68C,0.04543*%
G04:AMPARAMS|DCode=69|XSize=108.43mil|YSize=147.8mil|CornerRadius=29.61mil|HoleSize=0mil|Usage=FLASHONLY|Rotation=180.000|XOffset=0mil|YOffset=0mil|HoleType=Round|Shape=RoundedRectangle|*
%AMROUNDEDRECTD69*
21,1,0.10843,0.08858,0,0,180.0*
21,1,0.04921,0.14780,0,0,180.0*
1,1,0.05921,-0.02461,0.04429*
1,1,0.05921,0.02461,0.04429*
1,1,0.05921,0.02461,-0.04429*
1,1,0.05921,-0.02461,-0.04429*
%
%ADD69ROUNDEDRECTD69*%
%ADD70R,0.05331X0.03362*%
%ADD71R,0.04150X0.04543*%
D32*
X90012Y117618D02*
D03*
Y113878D02*
D03*
Y110138D02*
D03*
X78988D02*
D03*
Y117618D02*
D03*
D35*
X58531Y132500D02*
D03*
X62468D02*
D03*
X68032D02*
D03*
X71969D02*
D03*
X12032Y68500D02*
D03*
X15969D02*
D03*
X91469Y36122D02*
D03*
X87532D02*
D03*
X96531Y41122D02*
D03*
X100469D02*
D03*
X96531Y36122D02*
D03*
X100469D02*
D03*
X60000Y73500D02*
D03*
X56063D02*
D03*
X52126D02*
D03*
X54000Y83622D02*
D03*
X50063D02*
D03*
X46126D02*
D03*
X53437Y132500D02*
D03*
X49500D02*
D03*
X45563D02*
D03*
X39437D02*
D03*
X35500D02*
D03*
X31563D02*
D03*
X53969Y78622D02*
D03*
X50032D02*
D03*
X91469Y41122D02*
D03*
X87532D02*
D03*
X81032Y104378D02*
D03*
X84969D02*
D03*
D37*
X56000Y68468D02*
D03*
Y64531D02*
D03*
X50000Y88532D02*
D03*
Y92469D02*
D03*
X98000Y117532D02*
D03*
Y121468D02*
D03*
X103000Y121468D02*
D03*
Y117532D02*
D03*
X85000Y128969D02*
D03*
Y125031D02*
D03*
X64000Y80154D02*
D03*
Y84091D02*
D03*
X19400Y30468D02*
D03*
Y26531D02*
D03*
X12000Y55032D02*
D03*
Y58969D02*
D03*
D43*
X68000Y124622D02*
D03*
X58000D02*
D03*
X48000D02*
D03*
X84500Y61000D02*
D03*
D44*
X38000Y124622D02*
D03*
X94500Y61000D02*
D03*
D45*
X100300Y127720D02*
D03*
Y100161D02*
D03*
D46*
X89670Y123784D02*
D03*
Y104098D02*
D03*
D47*
X19500Y60500D02*
D03*
D48*
X99299Y150480D02*
D03*
X7000Y7000D02*
D03*
D58*
X74000Y108000D02*
D03*
Y98350D02*
D03*
D62*
X7390Y44075D02*
D03*
Y42106D02*
D03*
Y40138D02*
D03*
Y38169D02*
D03*
X18610D02*
D03*
Y40138D02*
D03*
Y42106D02*
D03*
Y44075D02*
D03*
D63*
X10047Y35512D02*
D03*
X12016D02*
D03*
X13984D02*
D03*
X15953D02*
D03*
Y46732D02*
D03*
X13984D02*
D03*
X12016D02*
D03*
X10047D02*
D03*
D64*
X101325Y47122D02*
D03*
X91675D02*
D03*
D67*
X100500Y105350D02*
D03*
Y111650D02*
D03*
D68*
X82500Y99000D02*
D03*
X3500Y60500D02*
D03*
Y68500D02*
D03*
X60000Y89000D02*
D03*
X46000Y54000D02*
D03*
X78000Y132500D02*
D03*
X64000Y95500D02*
D03*
D69*
X46307Y110122D02*
D03*
X59693D02*
D03*
D70*
X70260Y90000D02*
D03*
X77740Y87441D02*
D03*
Y92559D02*
D03*
D71*
X12756Y26500D02*
D03*
X7244D02*
D03*
M02*
