G04*
G04 #@! TF.GenerationSoftware,Altium Limited,Altium Designer,22.3.1 (43)*
G04*
G04 Layer_Color=8421504*
%FSLAX25Y25*%
%MOIN*%
G70*
G04*
G04 #@! TF.SameCoordinates,8BB9F333-D91B-4341-8B3B-76DA7BD7A395*
G04*
G04*
G04 #@! TF.FilePolarity,Positive*
G04*
G01*
G75*
%ADD16C,0.00000*%
%ADD17R,0.03937X0.03543*%
%ADD18R,0.02165X0.06693*%
%ADD19R,0.02362X0.01968*%
%ADD20R,0.07500X0.04300*%
%ADD21R,0.01968X0.02362*%
%ADD22R,0.04528X0.03150*%
%ADD23R,0.06500X0.15000*%
%ADD24R,0.06102X0.05906*%
%ADD25R,0.05315X0.01575*%
%ADD26R,0.02756X0.02362*%
%ADD27R,0.02362X0.02756*%
%ADD28R,0.03150X0.01378*%
%ADD29R,0.01378X0.03347*%
%ADD30R,0.01181X0.04724*%
%ADD31R,0.04724X0.01181*%
%ADD32R,0.04331X0.02362*%
G36*
X103351Y100161D02*
X103349Y100058D01*
X103340Y99956D01*
X103327Y99853D01*
X103308Y99752D01*
X103284Y99652D01*
X103255Y99553D01*
X103220Y99456D01*
X103181Y99361D01*
X103137Y99268D01*
X103087Y99177D01*
X103034Y99089D01*
X102975Y99004D01*
X102912Y98923D01*
X102846Y98844D01*
X102775Y98769D01*
X102700Y98699D01*
X102621Y98632D01*
X102540Y98569D01*
X102455Y98510D01*
X102367Y98457D01*
X102276Y98408D01*
X102183Y98363D01*
X102088Y98324D01*
X101991Y98289D01*
X101892Y98260D01*
X101792Y98236D01*
X101691Y98217D01*
X101588Y98204D01*
X101486Y98196D01*
X101383Y98193D01*
X99217D01*
X99114Y98196D01*
X99012Y98204D01*
X98909Y98217D01*
X98808Y98236D01*
X98708Y98260D01*
X98609Y98289D01*
X98512Y98324D01*
X98417Y98363D01*
X98324Y98408D01*
X98233Y98457D01*
X98145Y98510D01*
X98060Y98569D01*
X97979Y98632D01*
X97900Y98699D01*
X97825Y98769D01*
X97754Y98844D01*
X97688Y98923D01*
X97625Y99004D01*
X97566Y99089D01*
X97513Y99177D01*
X97463Y99268D01*
X97419Y99361D01*
X97380Y99456D01*
X97345Y99553D01*
X97316Y99652D01*
X97292Y99752D01*
X97273Y99853D01*
X97260Y99956D01*
X97251Y100058D01*
X97249Y100161D01*
Y104886D01*
X103351D01*
Y100161D01*
D02*
G37*
G36*
X101486Y129686D02*
X101588Y129678D01*
X101691Y129665D01*
X101792Y129646D01*
X101892Y129622D01*
X101991Y129593D01*
X102088Y129558D01*
X102183Y129519D01*
X102276Y129474D01*
X102367Y129425D01*
X102455Y129371D01*
X102540Y129313D01*
X102621Y129250D01*
X102700Y129183D01*
X102775Y129112D01*
X102846Y129038D01*
X102912Y128959D01*
X102975Y128877D01*
X103034Y128793D01*
X103087Y128705D01*
X103137Y128614D01*
X103181Y128521D01*
X103220Y128426D01*
X103255Y128329D01*
X103284Y128230D01*
X103308Y128130D01*
X103327Y128028D01*
X103340Y127926D01*
X103349Y127823D01*
X103351Y127720D01*
Y122996D01*
X97249D01*
Y127720D01*
X97251Y127823D01*
X97260Y127926D01*
X97273Y128028D01*
X97292Y128130D01*
X97316Y128230D01*
X97345Y128329D01*
X97380Y128426D01*
X97419Y128521D01*
X97463Y128614D01*
X97513Y128705D01*
X97566Y128793D01*
X97625Y128877D01*
X97688Y128959D01*
X97754Y129038D01*
X97825Y129112D01*
X97900Y129183D01*
X97979Y129250D01*
X98060Y129313D01*
X98145Y129371D01*
X98233Y129425D01*
X98324Y129474D01*
X98417Y129519D01*
X98512Y129558D01*
X98609Y129593D01*
X98708Y129622D01*
X98808Y129646D01*
X98909Y129665D01*
X99012Y129678D01*
X99114Y129686D01*
X99217Y129689D01*
X101383D01*
X101486Y129686D01*
D02*
G37*
%LPC*%
G36*
X101579Y101146D02*
X99020D01*
X98969Y101144D01*
X98918Y101140D01*
X98866Y101134D01*
X98816Y101124D01*
X98766Y101112D01*
X98716Y101098D01*
X98668Y101080D01*
X98620Y101061D01*
X98574Y101038D01*
X98528Y101014D01*
X98484Y100987D01*
X98442Y100958D01*
X98401Y100926D01*
X98362Y100893D01*
X98325Y100857D01*
X98289Y100820D01*
X98256Y100781D01*
X98224Y100740D01*
X98195Y100698D01*
X98168Y100654D01*
X98144Y100608D01*
X98121Y100562D01*
X98102Y100514D01*
X98084Y100466D01*
X98070Y100416D01*
X98058Y100366D01*
X98048Y100315D01*
X98042Y100264D01*
X98038Y100213D01*
X98036Y100161D01*
X98038Y100110D01*
X98042Y100058D01*
X98048Y100007D01*
X98058Y99957D01*
X98070Y99907D01*
X98084Y99857D01*
X98102Y99809D01*
X98121Y99761D01*
X98144Y99715D01*
X98168Y99669D01*
X98195Y99625D01*
X98224Y99583D01*
X98256Y99542D01*
X98289Y99503D01*
X98325Y99465D01*
X98362Y99430D01*
X98401Y99397D01*
X98442Y99365D01*
X98484Y99336D01*
X98528Y99309D01*
X98574Y99284D01*
X98620Y99262D01*
X98668Y99243D01*
X98716Y99225D01*
X98766Y99211D01*
X98816Y99199D01*
X98866Y99189D01*
X98918Y99183D01*
X98969Y99178D01*
X99020Y99177D01*
X101579D01*
X101631Y99178D01*
X101682Y99183D01*
X101734Y99189D01*
X101784Y99199D01*
X101834Y99211D01*
X101884Y99225D01*
X101932Y99243D01*
X101980Y99262D01*
X102026Y99284D01*
X102072Y99309D01*
X102116Y99336D01*
X102158Y99365D01*
X102199Y99397D01*
X102238Y99430D01*
X102276Y99465D01*
X102311Y99503D01*
X102344Y99542D01*
X102376Y99583D01*
X102405Y99625D01*
X102432Y99669D01*
X102456Y99715D01*
X102479Y99761D01*
X102498Y99809D01*
X102516Y99857D01*
X102530Y99907D01*
X102542Y99957D01*
X102552Y100007D01*
X102558Y100058D01*
X102562Y100110D01*
X102564Y100161D01*
X102562Y100213D01*
X102558Y100264D01*
X102552Y100315D01*
X102542Y100366D01*
X102530Y100416D01*
X102516Y100466D01*
X102498Y100514D01*
X102479Y100562D01*
X102456Y100608D01*
X102432Y100654D01*
X102405Y100698D01*
X102376Y100740D01*
X102344Y100781D01*
X102311Y100820D01*
X102276Y100857D01*
X102238Y100893D01*
X102199Y100926D01*
X102158Y100958D01*
X102116Y100987D01*
X102072Y101014D01*
X102026Y101038D01*
X101980Y101061D01*
X101932Y101080D01*
X101884Y101098D01*
X101834Y101112D01*
X101784Y101124D01*
X101734Y101134D01*
X101682Y101140D01*
X101631Y101144D01*
X101579Y101146D01*
D02*
G37*
G36*
Y128705D02*
X99020D01*
X98969Y128703D01*
X98918Y128699D01*
X98866Y128693D01*
X98816Y128683D01*
X98766Y128671D01*
X98716Y128657D01*
X98668Y128639D01*
X98620Y128620D01*
X98574Y128597D01*
X98528Y128573D01*
X98484Y128546D01*
X98442Y128517D01*
X98401Y128485D01*
X98362Y128452D01*
X98325Y128417D01*
X98289Y128379D01*
X98256Y128340D01*
X98224Y128299D01*
X98195Y128256D01*
X98168Y128213D01*
X98144Y128167D01*
X98121Y128121D01*
X98102Y128073D01*
X98084Y128025D01*
X98070Y127975D01*
X98058Y127925D01*
X98048Y127875D01*
X98042Y127823D01*
X98038Y127772D01*
X98036Y127720D01*
X98038Y127669D01*
X98042Y127618D01*
X98048Y127567D01*
X98058Y127516D01*
X98070Y127466D01*
X98084Y127416D01*
X98102Y127368D01*
X98121Y127320D01*
X98144Y127274D01*
X98168Y127228D01*
X98195Y127184D01*
X98224Y127142D01*
X98256Y127101D01*
X98289Y127062D01*
X98325Y127024D01*
X98362Y126989D01*
X98401Y126956D01*
X98442Y126924D01*
X98484Y126895D01*
X98528Y126868D01*
X98574Y126844D01*
X98620Y126821D01*
X98668Y126802D01*
X98716Y126784D01*
X98766Y126770D01*
X98816Y126758D01*
X98866Y126748D01*
X98918Y126742D01*
X98969Y126738D01*
X99020Y126736D01*
X101579D01*
X101631Y126738D01*
X101682Y126742D01*
X101734Y126748D01*
X101784Y126758D01*
X101834Y126770D01*
X101884Y126784D01*
X101932Y126802D01*
X101980Y126821D01*
X102026Y126844D01*
X102072Y126868D01*
X102116Y126895D01*
X102158Y126924D01*
X102199Y126956D01*
X102238Y126989D01*
X102276Y127024D01*
X102311Y127062D01*
X102344Y127101D01*
X102376Y127142D01*
X102405Y127184D01*
X102432Y127228D01*
X102456Y127274D01*
X102479Y127320D01*
X102498Y127368D01*
X102516Y127416D01*
X102530Y127466D01*
X102542Y127516D01*
X102552Y127567D01*
X102558Y127618D01*
X102562Y127669D01*
X102564Y127720D01*
X102562Y127772D01*
X102558Y127823D01*
X102552Y127875D01*
X102542Y127925D01*
X102530Y127975D01*
X102516Y128025D01*
X102498Y128073D01*
X102479Y128121D01*
X102456Y128167D01*
X102432Y128213D01*
X102405Y128256D01*
X102376Y128299D01*
X102344Y128340D01*
X102311Y128379D01*
X102276Y128417D01*
X102238Y128452D01*
X102199Y128485D01*
X102158Y128517D01*
X102116Y128546D01*
X102072Y128573D01*
X102026Y128597D01*
X101980Y128620D01*
X101932Y128639D01*
X101884Y128657D01*
X101834Y128671D01*
X101784Y128683D01*
X101734Y128693D01*
X101682Y128699D01*
X101631Y128703D01*
X101579Y128705D01*
D02*
G37*
%LPD*%
D16*
X102662Y127720D02*
X103331D01*
X97268Y100161D02*
X97938D01*
D17*
X101878Y33551D02*
D03*
X95583D02*
D03*
Y49693D02*
D03*
X101878D02*
D03*
D18*
X93122Y41622D02*
D03*
D19*
X57968Y116500D02*
D03*
X54031D02*
D03*
X24969Y79000D02*
D03*
X21032D02*
D03*
X44969Y47000D02*
D03*
X41032D02*
D03*
X54969D02*
D03*
X51032D02*
D03*
X12032Y64500D02*
D03*
X15969D02*
D03*
X70410Y100500D02*
D03*
X74347D02*
D03*
X54031Y101500D02*
D03*
X57968D02*
D03*
X54031Y106500D02*
D03*
X57968D02*
D03*
X70410Y95500D02*
D03*
X74347D02*
D03*
X57968Y111500D02*
D03*
X54031D02*
D03*
X61032Y47000D02*
D03*
X64969D02*
D03*
X86032Y53000D02*
D03*
X89969D02*
D03*
X38032Y101500D02*
D03*
X41969D02*
D03*
X63968Y56500D02*
D03*
X60031D02*
D03*
X7032Y79000D02*
D03*
X10968D02*
D03*
D20*
X94500Y80522D02*
D03*
Y70722D02*
D03*
D21*
X81500Y73654D02*
D03*
Y77591D02*
D03*
X86500Y73654D02*
D03*
Y77591D02*
D03*
X11000Y119032D02*
D03*
Y122968D02*
D03*
X102500Y78031D02*
D03*
Y81968D02*
D03*
Y72969D02*
D03*
Y69032D02*
D03*
X29000Y66531D02*
D03*
Y70468D02*
D03*
X76000Y67968D02*
D03*
Y64031D02*
D03*
X76500Y86568D02*
D03*
Y82631D02*
D03*
X81500Y86568D02*
D03*
Y82631D02*
D03*
X26500Y100937D02*
D03*
Y97000D02*
D03*
X16000Y78469D02*
D03*
Y74532D02*
D03*
X26500Y91000D02*
D03*
Y87063D02*
D03*
X79500Y100268D02*
D03*
Y96332D02*
D03*
X78000Y119532D02*
D03*
Y123468D02*
D03*
D22*
X85929Y43500D02*
D03*
X77071Y39760D02*
D03*
Y47240D02*
D03*
D23*
X68000Y35122D02*
D03*
X58000D02*
D03*
X48000D02*
D03*
X38000D02*
D03*
D24*
X100300Y117878D02*
D03*
Y110004D02*
D03*
D25*
X89670Y119059D02*
D03*
Y116500D02*
D03*
Y113941D02*
D03*
Y111382D02*
D03*
Y108823D02*
D03*
D26*
X22500Y124500D02*
D03*
D27*
X28209D02*
D03*
Y118595D02*
D03*
Y112689D02*
D03*
X16791D02*
D03*
Y118595D02*
D03*
Y124500D02*
D03*
D28*
X6229Y96693D02*
D03*
Y94725D02*
D03*
Y92756D02*
D03*
Y90788D02*
D03*
Y88819D02*
D03*
Y86851D02*
D03*
X21929D02*
D03*
Y88819D02*
D03*
Y90788D02*
D03*
Y92756D02*
D03*
Y94725D02*
D03*
Y96693D02*
D03*
D29*
X9157Y83922D02*
D03*
X11126D02*
D03*
X13094D02*
D03*
X15063D02*
D03*
X17031D02*
D03*
X19000D02*
D03*
Y99622D02*
D03*
X17031D02*
D03*
X15063D02*
D03*
X13094D02*
D03*
X11126D02*
D03*
X9157D02*
D03*
D30*
X63827Y61890D02*
D03*
X61858D02*
D03*
X59890D02*
D03*
X57921D02*
D03*
X55953D02*
D03*
X53984D02*
D03*
X52016D02*
D03*
X50047D02*
D03*
X48079D02*
D03*
X46110D02*
D03*
X44142D02*
D03*
X42173D02*
D03*
Y95354D02*
D03*
X44142D02*
D03*
X46110D02*
D03*
X48079D02*
D03*
X50047D02*
D03*
X52016D02*
D03*
X53984D02*
D03*
X55953D02*
D03*
X57921D02*
D03*
X59890D02*
D03*
X61858D02*
D03*
X63827D02*
D03*
D31*
X36268Y67795D02*
D03*
Y69764D02*
D03*
Y71732D02*
D03*
Y73701D02*
D03*
Y75669D02*
D03*
Y77638D02*
D03*
Y79606D02*
D03*
Y81575D02*
D03*
Y83543D02*
D03*
Y85512D02*
D03*
Y87480D02*
D03*
Y89449D02*
D03*
X69732D02*
D03*
Y87480D02*
D03*
Y85512D02*
D03*
Y83543D02*
D03*
Y81575D02*
D03*
Y79606D02*
D03*
Y77638D02*
D03*
Y75669D02*
D03*
Y73701D02*
D03*
Y71732D02*
D03*
Y69764D02*
D03*
Y67795D02*
D03*
D32*
X66988Y113740D02*
D03*
Y110000D02*
D03*
Y106260D02*
D03*
X78012D02*
D03*
Y113740D02*
D03*
M02*
