G04*
G04 #@! TF.GenerationSoftware,Altium Limited,Altium Designer,22.3.1 (43)*
G04*
G04 Layer_Color=65535*
%FSLAX25Y25*%
%MOIN*%
G70*
G04*
G04 #@! TF.SameCoordinates,8BB9F333-D91B-4341-8B3B-76DA7BD7A395*
G04*
G04*
G04 #@! TF.FilePolarity,Positive*
G04*
G01*
G75*
%ADD10C,0.00600*%
%ADD11C,0.01000*%
%ADD12C,0.00598*%
%ADD13C,0.00787*%
%ADD14C,0.00500*%
%ADD15C,0.00472*%
D10*
X13800Y128094D02*
G03*
X13800Y128094I-300J0D01*
G01*
X5829Y100322D02*
G03*
X5829Y100322I-300J0D01*
G01*
X69800Y62122D02*
G03*
X69800Y62122I-300J0D01*
G01*
X5529Y100322D02*
X7348D01*
X5529Y83222D02*
X7348D01*
X22629D02*
Y85041D01*
X20810Y100322D02*
X22629D01*
X5529Y98503D02*
Y100322D01*
Y83222D02*
Y85041D01*
X20810Y83222D02*
X22629D01*
Y98503D02*
Y100322D01*
X38350Y63972D02*
Y65885D01*
Y93272D02*
X40263D01*
X67650Y91359D02*
Y93272D01*
Y63972D02*
Y65885D01*
X38350Y63972D02*
X40263D01*
X38350Y91359D02*
Y93272D01*
X65737D02*
X67650D01*
X68450Y103400D02*
X76550D01*
Y108570D02*
Y111430D01*
X68450Y116600D02*
X76550D01*
D11*
X90551Y137795D02*
G03*
X90551Y145669I0J3937D01*
G01*
X15748D02*
G03*
X15748Y137795I0J-3937D01*
G01*
X90551Y11811D02*
G03*
X90551Y19685I0J3937D01*
G01*
X15748D02*
G03*
X15748Y11811I0J-3937D01*
G01*
X98425Y-0D02*
G03*
X106001Y7739I-82J7658D01*
G01*
Y149308D02*
G03*
X98425Y157480I-7874J298D01*
G01*
X7874D02*
G03*
X0Y149606I0J-7874D01*
G01*
Y7874D02*
G03*
X7874Y0I7874J0D01*
G01*
X89500Y67122D02*
X99500D01*
Y84122D01*
X89500D02*
X99500D01*
X89500Y67122D02*
Y84122D01*
X15748Y137795D02*
X90551D01*
X15748Y145669D02*
X90551D01*
X15748Y11811D02*
X90551D01*
X15748Y19685D02*
X90551D01*
X7874Y-0D02*
X98425D01*
X106001Y7739D02*
Y149308D01*
X7874Y157480D02*
X98425D01*
X0Y7874D02*
Y149606D01*
D12*
X105965Y36701D02*
Y46543D01*
X91988Y33354D02*
Y36110D01*
Y46543D02*
Y49890D01*
X103012Y36701D02*
X105965D01*
X103012D02*
Y46543D01*
X105965D01*
X51926Y118500D02*
X60000D01*
X51926Y114500D02*
Y118500D01*
X60074Y114500D02*
Y118500D01*
X51926Y114500D02*
X60000D01*
X83500Y71622D02*
Y79622D01*
X79500Y79696D02*
X83500D01*
X79500Y71622D02*
Y79622D01*
Y71548D02*
X83500D01*
X88500Y71622D02*
Y79622D01*
X84500Y79696D02*
X88500D01*
X84500Y71622D02*
Y79622D01*
Y71548D02*
X88500D01*
X19000Y81000D02*
X27000D01*
X18926Y77000D02*
Y81000D01*
X19000Y77000D02*
X27000D01*
X27074D02*
Y81000D01*
X39000Y49000D02*
X47000D01*
X38926Y45000D02*
Y49000D01*
X39000Y45000D02*
X47000D01*
X47074D02*
Y49000D01*
X49000D02*
X57000D01*
X48926Y45000D02*
Y49000D01*
X49000Y45000D02*
X57000D01*
X57074D02*
Y49000D01*
X10000Y62500D02*
X18000D01*
X18074D02*
Y66500D01*
X10000D02*
X18000D01*
X9926Y62500D02*
Y66500D01*
X68378Y98500D02*
X76378D01*
X76452D02*
Y102500D01*
X68378D02*
X76378D01*
X68304Y98500D02*
Y102500D01*
X52000Y99500D02*
X60000D01*
X60074D02*
Y103500D01*
X52000D02*
X60000D01*
X51926Y99500D02*
Y103500D01*
X52000Y104500D02*
X60000D01*
X60074D02*
Y108500D01*
X52000D02*
X60000D01*
X51926Y104500D02*
Y108500D01*
X68378Y93500D02*
X76378D01*
X76452D02*
Y97500D01*
X68378D02*
X76378D01*
X68304Y93500D02*
Y97500D01*
X52000Y113500D02*
X60000D01*
X51926Y109500D02*
Y113500D01*
X52000Y109500D02*
X60000D01*
X60074D02*
Y113500D01*
X59000Y45000D02*
X67000D01*
X67074D02*
Y49000D01*
X59000D02*
X67000D01*
X58926Y45000D02*
Y49000D01*
X84000Y51000D02*
X92000D01*
X92074D02*
Y55000D01*
X84000D02*
X92000D01*
X83926Y51000D02*
Y55000D01*
X65737Y63972D02*
X67650D01*
X13000Y117000D02*
Y125074D01*
X9000D02*
X13000D01*
X9000Y116926D02*
X13000D01*
X9000Y117000D02*
Y125074D01*
X104500Y76000D02*
Y84074D01*
X100500D02*
X104500D01*
X100500Y75926D02*
X104500D01*
X100500Y76000D02*
Y84074D01*
Y66926D02*
Y75000D01*
Y66926D02*
X104500D01*
X100500Y75074D02*
X104500D01*
Y66926D02*
Y75000D01*
X31000Y64500D02*
Y72574D01*
X27000D02*
X31000D01*
X27000Y64426D02*
X31000D01*
X27000Y64500D02*
Y72574D01*
X74000Y61926D02*
Y70000D01*
Y61926D02*
X78000D01*
X74000Y70074D02*
X78000D01*
Y61926D02*
Y70000D01*
X36000Y99500D02*
X44074D01*
Y103500D01*
X35926Y99500D02*
Y103500D01*
X36000D02*
X44074D01*
X74500Y80526D02*
Y88600D01*
Y80526D02*
X78500D01*
X74500Y88674D02*
X78500D01*
Y80526D02*
Y88600D01*
X57926Y58500D02*
X66000D01*
X57926Y54500D02*
Y58500D01*
X66074Y54500D02*
Y58500D01*
X57926Y54500D02*
X66000D01*
X79500Y80526D02*
Y88600D01*
Y80526D02*
X83500D01*
X79500Y88674D02*
X83500D01*
Y80526D02*
Y88600D01*
X24500Y94895D02*
Y102969D01*
Y94895D02*
X28500D01*
X24500Y103042D02*
X28500D01*
Y94895D02*
Y102969D01*
X14000Y72426D02*
Y80500D01*
Y72426D02*
X18000D01*
X14000Y80574D02*
X18000D01*
Y72426D02*
Y80500D01*
X5000Y77000D02*
X13074D01*
Y81000D01*
X4926Y77000D02*
Y81000D01*
X5000D02*
X13074D01*
X24500Y84958D02*
Y93032D01*
Y84958D02*
X28500D01*
X24500Y93105D02*
X28500D01*
Y84958D02*
Y93032D01*
X77500Y94226D02*
Y102300D01*
Y94226D02*
X81500D01*
X77500Y102374D02*
X81500D01*
Y94226D02*
Y102300D01*
X80000Y117500D02*
Y125574D01*
X76000D02*
X80000D01*
X76000Y117426D02*
X80000D01*
X76000Y117500D02*
Y125574D01*
D13*
X33000Y119622D02*
Y129622D01*
X73000D01*
X33000Y119622D02*
X73000D01*
Y129622D01*
X84256Y37595D02*
Y40744D01*
X80713Y37595D02*
X84256D01*
Y46256D02*
Y49406D01*
X80713D02*
X84256D01*
X79500Y56000D02*
X99500D01*
Y66000D01*
X79500D02*
X99500D01*
X79500Y56000D02*
Y66000D01*
X30500Y110094D02*
Y127094D01*
X14500D02*
X30500D01*
X14500Y110094D02*
X30500D01*
X14500D02*
Y127094D01*
D14*
X106009Y99374D02*
Y128508D01*
X104946D02*
X106009D01*
X104946Y99374D02*
X106009D01*
X89079Y127799D02*
Y128508D01*
Y99374D02*
Y100083D01*
Y128508D02*
X95989D01*
X89079Y99374D02*
X95989D01*
D15*
X11784Y5112D02*
X11456Y5440D01*
X10800D01*
X10472Y5112D01*
Y4784D01*
X10800Y4456D01*
X11456D01*
X11784Y4128D01*
Y3800D01*
X11456Y3472D01*
X10800D01*
X10472Y3800D01*
X12440Y3472D02*
Y4784D01*
X12768D01*
X13096Y4456D01*
Y3472D01*
Y4456D01*
X13424Y4784D01*
X13752Y4456D01*
Y3472D01*
X14736Y4784D02*
X15392D01*
X15720Y4456D01*
Y3472D01*
X14736D01*
X14408Y3800D01*
X14736Y4128D01*
X15720D01*
X16376Y4784D02*
Y3472D01*
Y4128D01*
X16704Y4456D01*
X17032Y4784D01*
X17360D01*
X18672Y5112D02*
Y4784D01*
X18344D01*
X19000D01*
X18672D01*
Y3800D01*
X19000Y3472D01*
X19984Y4784D02*
Y3800D01*
X20312Y3472D01*
X20640Y3800D01*
X20968Y3472D01*
X21296Y3800D01*
Y4784D01*
X22280D02*
X22936D01*
X23264Y4456D01*
Y3472D01*
X22280D01*
X21952Y3800D01*
X22280Y4128D01*
X23264D01*
X24248Y5112D02*
Y4784D01*
X23920D01*
X24575D01*
X24248D01*
Y3800D01*
X24575Y3472D01*
X26871Y4784D02*
X25887D01*
X25559Y4456D01*
Y3800D01*
X25887Y3472D01*
X26871D01*
X27527Y5440D02*
Y3472D01*
Y4456D01*
X27855Y4784D01*
X28511D01*
X28839Y4456D01*
Y3472D01*
X31463Y4784D02*
X32119Y3472D01*
X32775Y4784D01*
X34743Y3472D02*
X33431D01*
X34743Y4784D01*
Y5112D01*
X34415Y5440D01*
X33759D01*
X33431Y5112D01*
X81516Y107540D02*
Y108196D01*
Y107868D01*
X83484D01*
Y107540D01*
Y108196D01*
X81844Y110492D02*
X81516Y110164D01*
Y109508D01*
X81844Y109180D01*
X83156D01*
X83484Y109508D01*
Y110164D01*
X83156Y110492D01*
X83484Y112460D02*
Y111148D01*
X82172Y112460D01*
X81844D01*
X81516Y112132D01*
Y111476D01*
X81844Y111148D01*
X33204Y133484D02*
Y131516D01*
X34188D01*
X34516Y131844D01*
Y133156D01*
X34188Y133484D01*
X33204D01*
X36484Y133156D02*
X36156Y133484D01*
X35500D01*
X35172Y133156D01*
Y132828D01*
X35500Y132500D01*
X36156D01*
X36484Y132172D01*
Y131844D01*
X36156Y131516D01*
X35500D01*
X35172Y131844D01*
X37140Y131516D02*
X37796D01*
X37468D01*
Y133484D01*
X37140Y133156D01*
X21852Y69156D02*
X21524Y69484D01*
X20868D01*
X20540Y69156D01*
Y67844D01*
X20868Y67516D01*
X21524D01*
X21852Y67844D01*
X22508Y67516D02*
X23164D01*
X22836D01*
Y69484D01*
X22508Y69156D01*
X24148Y67844D02*
X24476Y67516D01*
X25132D01*
X25460Y67844D01*
Y69156D01*
X25132Y69484D01*
X24476D01*
X24148Y69156D01*
Y68828D01*
X24476Y68500D01*
X25460D01*
X81852Y91656D02*
X81524Y91984D01*
X80868D01*
X80540Y91656D01*
Y90344D01*
X80868Y90016D01*
X81524D01*
X81852Y90344D01*
X82508Y90016D02*
X83164D01*
X82836D01*
Y91984D01*
X82508Y91656D01*
X84148D02*
X84476Y91984D01*
X85132D01*
X85460Y91656D01*
Y91328D01*
X85132Y91000D01*
X84804D01*
X85132D01*
X85460Y90672D01*
Y90344D01*
X85132Y90016D01*
X84476D01*
X84148Y90344D01*
X76500Y50844D02*
Y52156D01*
X76172Y52484D01*
X75516D01*
X75188Y52156D01*
Y50844D01*
X75516Y50516D01*
X76172D01*
X75844Y51172D02*
X76500Y50516D01*
X76172D02*
X76500Y50844D01*
X77156Y50516D02*
X77812D01*
X77484D01*
Y52484D01*
X77156Y52156D01*
X90236Y87984D02*
X91548Y86016D01*
Y87984D02*
X90236Y86016D01*
X92204Y87984D02*
X93516D01*
X92860D01*
Y86016D01*
X94172D02*
Y87328D01*
X94828Y87984D01*
X95484Y87328D01*
Y86016D01*
Y87000D01*
X94172D01*
X96140Y87984D02*
Y86016D01*
X97452D01*
X98108D02*
X98764D01*
X98436D01*
Y87984D01*
X98108Y87656D01*
X94935Y54075D02*
X94607Y54403D01*
X93951D01*
X93623Y54075D01*
Y53747D01*
X93951Y53419D01*
X94607D01*
X94935Y53091D01*
Y52763D01*
X94607Y52435D01*
X93951D01*
X93623Y52763D01*
X95591Y54403D02*
Y52435D01*
X96247Y53091D01*
X96903Y52435D01*
Y54403D01*
X97558Y52435D02*
X98215D01*
X97887D01*
Y54403D01*
X97558Y54075D01*
X45540Y100516D02*
Y102484D01*
X46524D01*
X46852Y102156D01*
Y101500D01*
X46524Y101172D01*
X45540D01*
X46196D02*
X46852Y100516D01*
X47508D02*
X48164D01*
X47836D01*
Y102484D01*
X47508Y102156D01*
X50460Y100516D02*
X49148D01*
X50460Y101828D01*
Y102156D01*
X50132Y102484D01*
X49476D01*
X49148Y102156D01*
X60860Y50516D02*
Y52484D01*
X61844D01*
X62172Y52156D01*
Y51500D01*
X61844Y51172D01*
X60860D01*
X61516D02*
X62172Y50516D01*
X62828Y52156D02*
X63156Y52484D01*
X63812D01*
X64140Y52156D01*
Y51828D01*
X63812Y51500D01*
X64140Y51172D01*
Y50844D01*
X63812Y50516D01*
X63156D01*
X62828Y50844D01*
Y51172D01*
X63156Y51500D01*
X62828Y51828D01*
Y52156D01*
X63156Y51500D02*
X63812D01*
X88040Y94516D02*
Y96484D01*
X89024D01*
X89352Y96156D01*
Y95500D01*
X89024Y95172D01*
X88040D01*
X88696D02*
X89352Y94516D01*
X90008D02*
X90664D01*
X90336D01*
Y96484D01*
X90008Y96156D01*
X91648D02*
X91976Y96484D01*
X92632D01*
X92960Y96156D01*
Y95828D01*
X92632Y95500D01*
X92304D01*
X92632D01*
X92960Y95172D01*
Y94844D01*
X92632Y94516D01*
X91976D01*
X91648Y94844D01*
X88040Y91016D02*
Y92984D01*
X89024D01*
X89352Y92656D01*
Y92000D01*
X89024Y91672D01*
X88040D01*
X88696D02*
X89352Y91016D01*
X90008D02*
X90664D01*
X90336D01*
Y92984D01*
X90008Y92656D01*
X91648D02*
X91976Y92984D01*
X92632D01*
X92960Y92656D01*
Y91344D01*
X92632Y91016D01*
X91976D01*
X91648Y91344D01*
Y92656D01*
X73901Y76213D02*
Y77787D01*
X74688D01*
X74950Y77525D01*
Y77000D01*
X74688Y76738D01*
X73901D01*
X74426D02*
X74950Y76213D01*
X76525D02*
X75475D01*
X76525Y77262D01*
Y77525D01*
X76262Y77787D01*
X75738D01*
X75475Y77525D01*
X77837Y76213D02*
Y77787D01*
X77049Y77000D01*
X78099D01*
X73901Y72213D02*
Y73787D01*
X74688D01*
X74950Y73525D01*
Y73000D01*
X74688Y72738D01*
X73901D01*
X74426D02*
X74950Y72213D01*
X76525D02*
X75475D01*
X76525Y73262D01*
Y73525D01*
X76262Y73787D01*
X75738D01*
X75475Y73525D01*
X77049D02*
X77312Y73787D01*
X77837D01*
X78099Y73525D01*
Y73262D01*
X77837Y73000D01*
X77574D01*
X77837D01*
X78099Y72738D01*
Y72475D01*
X77837Y72213D01*
X77312D01*
X77049Y72475D01*
X20175Y73717D02*
Y75685D01*
X21159D01*
X21487Y75357D01*
Y74701D01*
X21159Y74373D01*
X20175D01*
X20831D02*
X21487Y73717D01*
X23455D02*
X22143D01*
X23455Y75029D01*
Y75357D01*
X23127Y75685D01*
X22471D01*
X22143Y75357D01*
X25423Y73717D02*
X24111D01*
X25423Y75029D01*
Y75357D01*
X25095Y75685D01*
X24439D01*
X24111Y75357D01*
X79360Y52016D02*
Y53984D01*
X80344D01*
X80672Y53656D01*
Y53000D01*
X80344Y52672D01*
X79360D01*
X80016D02*
X80672Y52016D01*
X82640Y53984D02*
X81984Y53656D01*
X81328Y53000D01*
Y52344D01*
X81656Y52016D01*
X82312D01*
X82640Y52344D01*
Y52672D01*
X82312Y53000D01*
X81328D01*
X40540Y50516D02*
Y52484D01*
X41524D01*
X41852Y52156D01*
Y51500D01*
X41524Y51172D01*
X40540D01*
X41196D02*
X41852Y50516D01*
X42508D02*
X43164D01*
X42836D01*
Y52484D01*
X42508Y52156D01*
X44148Y50844D02*
X44476Y50516D01*
X45132D01*
X45460Y50844D01*
Y52156D01*
X45132Y52484D01*
X44476D01*
X44148Y52156D01*
Y51828D01*
X44476Y51500D01*
X45460D01*
X51040Y50516D02*
Y52484D01*
X52024D01*
X52352Y52156D01*
Y51500D01*
X52024Y51172D01*
X51040D01*
X51696D02*
X52352Y50516D01*
X53008D02*
X53664D01*
X53336D01*
Y52484D01*
X53008Y52156D01*
X54648D02*
X54976Y52484D01*
X55632D01*
X55960Y52156D01*
Y51828D01*
X55632Y51500D01*
X55960Y51172D01*
Y50844D01*
X55632Y50516D01*
X54976D01*
X54648Y50844D01*
Y51172D01*
X54976Y51500D01*
X54648Y51828D01*
Y52156D01*
X54976Y51500D02*
X55632D01*
X11540Y59016D02*
Y60984D01*
X12524D01*
X12852Y60656D01*
Y60000D01*
X12524Y59672D01*
X11540D01*
X12196D02*
X12852Y59016D01*
X13508D02*
X14164D01*
X13836D01*
Y60984D01*
X13508Y60656D01*
X16460Y60984D02*
X15148D01*
Y60000D01*
X15804Y60328D01*
X16132D01*
X16460Y60000D01*
Y59344D01*
X16132Y59016D01*
X15476D01*
X15148Y59344D01*
X45947Y105847D02*
Y107815D01*
X46931D01*
X47259Y107487D01*
Y106831D01*
X46931Y106503D01*
X45947D01*
X46603D02*
X47259Y105847D01*
X47915D02*
X48571D01*
X48243D01*
Y107815D01*
X47915Y107487D01*
X49555Y105847D02*
X50211D01*
X49883D01*
Y107815D01*
X49555Y107487D01*
X45860Y110516D02*
Y112484D01*
X46844D01*
X47172Y112156D01*
Y111500D01*
X46844Y111172D01*
X45860D01*
X46516D02*
X47172Y110516D01*
X47828Y110844D02*
X48156Y110516D01*
X48812D01*
X49140Y110844D01*
Y112156D01*
X48812Y112484D01*
X48156D01*
X47828Y112156D01*
Y111828D01*
X48156Y111500D01*
X49140D01*
X33188Y45016D02*
Y46984D01*
X34172D01*
X34500Y46656D01*
Y46000D01*
X34172Y45672D01*
X33188D01*
X35156Y45016D02*
X35812D01*
X35484D01*
Y46984D01*
X35156Y46656D01*
X79704Y69484D02*
Y67516D01*
X81016D01*
X82984Y69156D02*
X82656Y69484D01*
X82000D01*
X81672Y69156D01*
Y68828D01*
X82000Y68500D01*
X82656D01*
X82984Y68172D01*
Y67844D01*
X82656Y67516D01*
X82000D01*
X81672Y67844D01*
X83640Y67516D02*
X84296D01*
X83968D01*
Y69484D01*
X83640Y69156D01*
X89000Y132984D02*
X88344D01*
X88672D01*
Y131344D01*
X88344Y131016D01*
X88016D01*
X87688Y131344D01*
X89656Y131016D02*
X90312D01*
X89984D01*
Y132984D01*
X89656Y132656D01*
X15540Y131078D02*
X16196D01*
X15868D01*
Y129111D01*
X15540D01*
X16196D01*
X18492Y130751D02*
X18164Y131078D01*
X17508D01*
X17180Y130751D01*
Y129438D01*
X17508Y129111D01*
X18164D01*
X18492Y129438D01*
X20460Y131078D02*
X19804Y130751D01*
X19148Y130095D01*
Y129438D01*
X19476Y129111D01*
X20132D01*
X20460Y129438D01*
Y129766D01*
X20132Y130095D01*
X19148D01*
X5540Y104484D02*
X6196D01*
X5868D01*
Y102516D01*
X5540D01*
X6196D01*
X8492Y104156D02*
X8164Y104484D01*
X7508D01*
X7180Y104156D01*
Y102844D01*
X7508Y102516D01*
X8164D01*
X8492Y102844D01*
X10460Y104484D02*
X9148D01*
Y103500D01*
X9804Y103828D01*
X10132D01*
X10460Y103500D01*
Y102844D01*
X10132Y102516D01*
X9476D01*
X9148Y102844D01*
X32040Y61984D02*
X32696D01*
X32368D01*
Y60016D01*
X32040D01*
X32696D01*
X34992Y61656D02*
X34664Y61984D01*
X34008D01*
X33680Y61656D01*
Y60344D01*
X34008Y60016D01*
X34664D01*
X34992Y60344D01*
X36632Y60016D02*
Y61984D01*
X35648Y61000D01*
X36960D01*
X94844Y93672D02*
X94516Y93344D01*
Y92688D01*
X94844Y92360D01*
X96156D01*
X96484Y92688D01*
Y93344D01*
X96156Y93672D01*
X94516Y95640D02*
Y94328D01*
X95500D01*
X95172Y94984D01*
Y95312D01*
X95500Y95640D01*
X96156D01*
X96484Y95312D01*
Y94656D01*
X96156Y94328D01*
X101844Y86688D02*
X101516Y86360D01*
Y85704D01*
X101844Y85376D01*
X103156D01*
X103484Y85704D01*
Y86360D01*
X103156Y86688D01*
X103484Y88656D02*
Y87344D01*
X102172Y88656D01*
X101844D01*
X101516Y88328D01*
Y87672D01*
X101844Y87344D01*
X103484Y90624D02*
Y89312D01*
X102172Y90624D01*
X101844D01*
X101516Y90296D01*
Y89640D01*
X101844Y89312D01*
Y62016D02*
X101516Y61688D01*
Y61032D01*
X101844Y60704D01*
X103156D01*
X103484Y61032D01*
Y61688D01*
X103156Y62016D01*
X103484Y63984D02*
Y62672D01*
X102172Y63984D01*
X101844D01*
X101516Y63656D01*
Y63000D01*
X101844Y62672D01*
X103484Y64640D02*
Y65296D01*
Y64968D01*
X101516D01*
X101844Y64640D01*
X31656Y89328D02*
X31984Y89656D01*
Y90312D01*
X31656Y90640D01*
X30344D01*
X30016Y90312D01*
Y89656D01*
X30344Y89328D01*
Y88672D02*
X30016Y88344D01*
Y87688D01*
X30344Y87360D01*
X31656D01*
X31984Y87688D01*
Y88344D01*
X31656Y88672D01*
X31328D01*
X31000Y88344D01*
Y87360D01*
X3688Y121656D02*
X3360Y121984D01*
X2704D01*
X2376Y121656D01*
Y120344D01*
X2704Y120016D01*
X3360D01*
X3688Y120344D01*
X5656Y120016D02*
X4344D01*
X5656Y121328D01*
Y121656D01*
X5328Y121984D01*
X4672D01*
X4344Y121656D01*
X6312D02*
X6640Y121984D01*
X7296D01*
X7624Y121656D01*
Y121328D01*
X7296Y121000D01*
X6968D01*
X7296D01*
X7624Y120672D01*
Y120344D01*
X7296Y120016D01*
X6640D01*
X6312Y120344D01*
X74352Y58156D02*
X74024Y58484D01*
X73368D01*
X73040Y58156D01*
Y56844D01*
X73368Y56516D01*
X74024D01*
X74352Y56844D01*
X75008Y56516D02*
X75664D01*
X75336D01*
Y58484D01*
X75008Y58156D01*
X76648D02*
X76976Y58484D01*
X77632D01*
X77960Y58156D01*
Y57828D01*
X77632Y57500D01*
X77960Y57172D01*
Y56844D01*
X77632Y56516D01*
X76976D01*
X76648Y56844D01*
Y57172D01*
X76976Y57500D01*
X76648Y57828D01*
Y58156D01*
X76976Y57500D02*
X77632D01*
X38852Y106656D02*
X38524Y106984D01*
X37868D01*
X37540Y106656D01*
Y105344D01*
X37868Y105016D01*
X38524D01*
X38852Y105344D01*
X39508Y105016D02*
X40164D01*
X39836D01*
Y106984D01*
X39508Y106656D01*
X41148Y106984D02*
X42460D01*
Y106656D01*
X41148Y105344D01*
Y105016D01*
X75352Y91656D02*
X75024Y91984D01*
X74368D01*
X74040Y91656D01*
Y90344D01*
X74368Y90016D01*
X75024D01*
X75352Y90344D01*
X76008Y90016D02*
X76664D01*
X76336D01*
Y91984D01*
X76008Y91656D01*
X78960Y91984D02*
X78304Y91656D01*
X77648Y91000D01*
Y90344D01*
X77976Y90016D01*
X78632D01*
X78960Y90344D01*
Y90672D01*
X78632Y91000D01*
X77648D01*
X52836Y57172D02*
X52508Y57500D01*
X51852D01*
X51524Y57172D01*
Y55860D01*
X51852Y55532D01*
X52508D01*
X52836Y55860D01*
X53492Y55532D02*
X54148D01*
X53820D01*
Y57500D01*
X53492Y57172D01*
X56444Y57500D02*
X55132D01*
Y56516D01*
X55788Y56844D01*
X56116D01*
X56444Y56516D01*
Y55860D01*
X56116Y55532D01*
X55460D01*
X55132Y55860D01*
X31656Y100148D02*
X31984Y100476D01*
Y101132D01*
X31656Y101460D01*
X30344D01*
X30016Y101132D01*
Y100476D01*
X30344Y100148D01*
X30016Y99492D02*
Y98836D01*
Y99164D01*
X31984D01*
X31656Y99492D01*
X30016Y96540D02*
Y97852D01*
X31328Y96540D01*
X31656D01*
X31984Y96868D01*
Y97524D01*
X31656Y97852D01*
X15180Y70656D02*
X14852Y70984D01*
X14196D01*
X13868Y70656D01*
Y69344D01*
X14196Y69016D01*
X14852D01*
X15180Y69344D01*
X15836Y69016D02*
X16492D01*
X16164D01*
Y70984D01*
X15836Y70656D01*
X17476Y69016D02*
X18132D01*
X17804D01*
Y70984D01*
X17476Y70656D01*
X7852Y75156D02*
X7524Y75484D01*
X6868D01*
X6540Y75156D01*
Y73844D01*
X6868Y73516D01*
X7524D01*
X7852Y73844D01*
X8508Y73516D02*
X9164D01*
X8836D01*
Y75484D01*
X8508Y75156D01*
X10148D02*
X10476Y75484D01*
X11132D01*
X11460Y75156D01*
Y73844D01*
X11132Y73516D01*
X10476D01*
X10148Y73844D01*
Y75156D01*
X77672Y128656D02*
X77344Y128984D01*
X76688D01*
X76360Y128656D01*
Y127344D01*
X76688Y127016D01*
X77344D01*
X77672Y127344D01*
X79312Y127016D02*
Y128984D01*
X78328Y128000D01*
X79640D01*
X47172Y117156D02*
X46844Y117484D01*
X46188D01*
X45860Y117156D01*
Y115844D01*
X46188Y115516D01*
X46844D01*
X47172Y115844D01*
X47828Y117156D02*
X48156Y117484D01*
X48812D01*
X49140Y117156D01*
Y116828D01*
X48812Y116500D01*
X48484D01*
X48812D01*
X49140Y116172D01*
Y115844D01*
X48812Y115516D01*
X48156D01*
X47828Y115844D01*
M02*
