G04*
G04 #@! TF.GenerationSoftware,Altium Limited,Altium Designer,22.3.1 (43)*
G04*
G04 Layer_Color=32896*
%FSLAX25Y25*%
%MOIN*%
G70*
G04*
G04 #@! TF.SameCoordinates,8BB9F333-D91B-4341-8B3B-76DA7BD7A395*
G04*
G04*
G04 #@! TF.FilePolarity,Positive*
G04*
G01*
G75*
%ADD10C,0.00600*%
%ADD11C,0.01000*%
%ADD12C,0.00598*%
%ADD13C,0.00787*%
%ADD15C,0.00472*%
%ADD72C,0.00591*%
%ADD73C,0.00984*%
D10*
X71800Y109175D02*
G03*
X71800Y109175I-300J0D01*
G01*
X6900Y47522D02*
G03*
X6900Y47522I-300J0D01*
G01*
X102800Y49622D02*
G03*
X102800Y49622I-300J0D01*
G01*
X80450Y112448D02*
Y115308D01*
X81000Y107478D02*
X88000D01*
X81000Y120278D02*
X88000D01*
X70850Y99125D02*
X71990D01*
X77150D02*
Y107225D01*
X76010Y99125D02*
X77150D01*
X70850D02*
Y107225D01*
X71990D01*
X76010D02*
X77150D01*
X6600Y34722D02*
X8337D01*
X19400D02*
Y36459D01*
X17663Y47522D02*
X19400D01*
X6600D02*
X8337D01*
X6600Y34722D02*
Y36459D01*
X17663Y34722D02*
X19400D01*
Y45785D02*
Y47522D01*
X6600Y45785D02*
Y47522D01*
X92450Y49132D02*
Y50272D01*
Y43972D02*
X100550D01*
X92450D02*
Y45112D01*
Y50272D02*
X100550D01*
Y49132D02*
Y50272D01*
Y43972D02*
Y45112D01*
D11*
X90551Y137795D02*
G03*
X90551Y145669I0J3937D01*
G01*
X15748D02*
G03*
X15748Y137795I0J-3937D01*
G01*
X90551Y11811D02*
G03*
X90551Y19685I0J3937D01*
G01*
X15748D02*
G03*
X15748Y11811I0J-3937D01*
G01*
X98425Y-0D02*
G03*
X106001Y7739I-82J7658D01*
G01*
Y149308D02*
G03*
X98425Y157480I-7874J298D01*
G01*
X7874D02*
G03*
X0Y149606I0J-7874D01*
G01*
Y7874D02*
G03*
X7874Y0I7874J0D01*
G01*
X66000Y102122D02*
Y118122D01*
X40000Y102122D02*
X66000D01*
X40000D02*
Y118122D01*
X66000D01*
X15748Y137795D02*
X90551D01*
X15748Y145669D02*
X90551D01*
X15748Y11811D02*
X90551D01*
X15748Y19685D02*
X90551D01*
X7874Y-0D02*
X98425D01*
X106001Y7739D02*
Y149308D01*
X7874Y157480D02*
X98425D01*
X0Y7874D02*
Y149606D01*
D12*
X98000Y102700D02*
X103000D01*
X98000D02*
Y114200D01*
X98100Y114300D01*
X103000Y102700D02*
Y114200D01*
X102900Y114300D02*
X103000Y114200D01*
X56500Y134500D02*
X64500D01*
X64574Y130500D02*
Y134500D01*
X56500Y130500D02*
X64500D01*
X56426D02*
Y134500D01*
X66000D02*
X74000D01*
X74074Y130500D02*
Y134500D01*
X66000Y130500D02*
X74000D01*
X65926D02*
Y134500D01*
X58000Y62500D02*
Y70500D01*
X54000Y62426D02*
X58000D01*
X54000Y62500D02*
Y70500D01*
Y70574D02*
X58000D01*
X48000Y86500D02*
Y94500D01*
Y94574D02*
X52000D01*
Y86500D02*
Y94500D01*
X48000Y86426D02*
X52000D01*
X10000Y70500D02*
X18000D01*
X18074Y66500D02*
Y70500D01*
X10000Y66500D02*
X18000D01*
X9926D02*
Y70500D01*
X96000Y115500D02*
Y123500D01*
Y123574D02*
X100000D01*
Y115500D02*
Y123500D01*
X96000Y115426D02*
X100000D01*
X85500Y34122D02*
X93500D01*
X85426D02*
Y38122D01*
X85500D02*
X93500D01*
X93574Y34122D02*
Y38122D01*
X94500Y43122D02*
X102500D01*
X102574Y39122D02*
Y43122D01*
X94500Y39122D02*
X102500D01*
X94426D02*
Y43122D01*
X105000Y115500D02*
Y123500D01*
X101000Y115426D02*
X105000D01*
X101000Y115500D02*
Y123500D01*
Y123574D02*
X105000D01*
X94500Y38122D02*
X102500D01*
X102574Y34122D02*
Y38122D01*
X94500Y34122D02*
X102500D01*
X94426D02*
Y38122D01*
X87000Y123000D02*
Y131000D01*
X83000Y122926D02*
X87000D01*
X83000Y123000D02*
Y131000D01*
Y131074D02*
X87000D01*
X49938Y75500D02*
X62198D01*
Y71500D02*
Y75500D01*
X49938Y71500D02*
X62198D01*
X43938Y85622D02*
X56198D01*
Y81622D02*
Y85622D01*
X43938Y81622D02*
X56198D01*
X43376Y134500D02*
X55635D01*
Y130500D02*
Y134500D01*
X43376Y130500D02*
X55635D01*
X29375Y134500D02*
X41635D01*
Y130500D02*
Y134500D01*
X29375Y130500D02*
X41635D01*
X62000Y78122D02*
Y86196D01*
X66000D01*
X62000Y78048D02*
X66000D01*
Y78122D02*
Y86196D01*
X47926Y76622D02*
X56000D01*
X47926D02*
Y80622D01*
X56074Y76622D02*
Y80622D01*
X47926D02*
X56000D01*
X4500Y23500D02*
X15500D01*
Y29500D01*
X4500D02*
X15500D01*
X4500Y23500D02*
Y29500D01*
X21400Y24426D02*
Y32500D01*
X17400Y24426D02*
X21400D01*
X17400Y32574D02*
X21400D01*
X17400Y24426D02*
Y32500D01*
X10000Y53000D02*
Y61074D01*
X14000D01*
X10000Y52926D02*
X14000D01*
Y53000D02*
Y61074D01*
X85426Y39122D02*
X93500D01*
X85426D02*
Y43122D01*
X93574Y39122D02*
Y43122D01*
X85426D02*
X93500D01*
X79000Y106378D02*
X87074D01*
Y102378D02*
Y106378D01*
X78926Y102378D02*
Y106378D01*
X79000Y102378D02*
X87074D01*
D13*
X98100Y114300D02*
X102900D01*
X49938Y71630D02*
Y75370D01*
X43938Y81752D02*
Y85492D01*
X43376Y130630D02*
Y134370D01*
X29375Y130630D02*
Y134370D01*
X71000Y85460D02*
Y87460D01*
Y85460D02*
X73500D01*
X71000Y92500D02*
Y94500D01*
X73500D01*
D15*
X27484Y131784D02*
Y131128D01*
Y131456D01*
X25844D01*
X25516Y131128D01*
Y130800D01*
X25844Y130472D01*
X25516Y132440D02*
X27484D01*
Y133424D01*
X27156Y133752D01*
X26500D01*
X26172Y133424D01*
Y132440D01*
X25516Y134408D02*
Y135064D01*
Y134736D01*
X27484D01*
X27156Y134408D01*
X23984Y131784D02*
Y131128D01*
Y131456D01*
X22344D01*
X22016Y131128D01*
Y130800D01*
X22344Y130472D01*
X22016Y132440D02*
X23984D01*
Y133424D01*
X23656Y133752D01*
X23000D01*
X22672Y133424D01*
Y132440D01*
X22016Y135720D02*
Y134408D01*
X23328Y135720D01*
X23656D01*
X23984Y135392D01*
Y134736D01*
X23656Y134408D01*
X7124Y56484D02*
X5812D01*
X6468D01*
Y54516D01*
X5156D02*
Y56484D01*
X4172D01*
X3844Y56156D01*
Y55500D01*
X4172Y55172D01*
X5156D01*
X3188Y56484D02*
X1876D01*
Y56156D01*
X3188Y54844D01*
Y54516D01*
X7124Y74484D02*
X5812D01*
X6468D01*
Y72516D01*
X5156D02*
Y74484D01*
X4172D01*
X3844Y74156D01*
Y73500D01*
X4172Y73172D01*
X5156D01*
X1876Y74484D02*
X2532Y74156D01*
X3188Y73500D01*
Y72844D01*
X2860Y72516D01*
X2204D01*
X1876Y72844D01*
Y73172D01*
X2204Y73500D01*
X3188D01*
X88124Y134484D02*
X86812D01*
X87468D01*
Y132516D01*
X86156D02*
Y134484D01*
X85172D01*
X84844Y134156D01*
Y133500D01*
X85172Y133172D01*
X86156D01*
X84188Y134156D02*
X83860Y134484D01*
X83204D01*
X82876Y134156D01*
Y133828D01*
X83204Y133500D01*
X83532D01*
X83204D01*
X82876Y133172D01*
Y132844D01*
X83204Y132516D01*
X83860D01*
X84188Y132844D01*
X60028Y98484D02*
X58716D01*
X59372D01*
Y96516D01*
X58060D02*
Y98484D01*
X57076D01*
X56748Y98156D01*
Y97500D01*
X57076Y97172D01*
X58060D01*
X54780Y96516D02*
X56092D01*
X54780Y97828D01*
Y98156D01*
X55108Y98484D01*
X55764D01*
X56092Y98156D01*
X89796Y95984D02*
X88484D01*
X89140D01*
Y94016D01*
X87828D02*
Y95984D01*
X86844D01*
X86516Y95656D01*
Y95000D01*
X86844Y94672D01*
X87828D01*
X85860Y94016D02*
X85204D01*
X85532D01*
Y95984D01*
X85860Y95656D01*
X60028Y94984D02*
X58716D01*
X59372D01*
Y93016D01*
X58060D02*
Y94984D01*
X57076D01*
X56748Y94656D01*
Y94000D01*
X57076Y93672D01*
X58060D01*
X54780Y94984D02*
X56092D01*
Y94000D01*
X55436Y94328D01*
X55108D01*
X54780Y94000D01*
Y93344D01*
X55108Y93016D01*
X55764D01*
X56092Y93344D01*
X49022Y60484D02*
X47710D01*
X48366D01*
Y58516D01*
X47054D02*
Y60484D01*
X46070D01*
X45742Y60156D01*
Y59500D01*
X46070Y59172D01*
X47054D01*
X44102Y58516D02*
Y60484D01*
X45086Y59500D01*
X43774D01*
X90640Y27016D02*
Y28984D01*
X89656D01*
X89328Y28656D01*
Y28000D01*
X89656Y27672D01*
X90640D01*
X89984D02*
X89328Y27016D01*
X87360Y28984D02*
X88672D01*
Y28000D01*
X88016Y28328D01*
X87688D01*
X87360Y28000D01*
Y27344D01*
X87688Y27016D01*
X88344D01*
X88672Y27344D01*
X100140Y27016D02*
Y28984D01*
X99156D01*
X98828Y28656D01*
Y28000D01*
X99156Y27672D01*
X100140D01*
X99484D02*
X98828Y27016D01*
X96860D02*
X98172D01*
X96860Y28328D01*
Y28656D01*
X97188Y28984D01*
X97844D01*
X98172Y28656D01*
X104140Y131016D02*
Y132984D01*
X103156D01*
X102828Y132656D01*
Y132000D01*
X103156Y131672D01*
X104140D01*
X103484D02*
X102828Y131016D01*
X102172Y132656D02*
X101844Y132984D01*
X101188D01*
X100860Y132656D01*
Y132328D01*
X101188Y132000D01*
X101516D01*
X101188D01*
X100860Y131672D01*
Y131344D01*
X101188Y131016D01*
X101844D01*
X102172Y131344D01*
X18516Y130472D02*
X20484D01*
Y131456D01*
X20156Y131784D01*
X19500D01*
X19172Y131456D01*
Y130472D01*
Y131128D02*
X18516Y131784D01*
Y133752D02*
Y132440D01*
X19828Y133752D01*
X20156D01*
X20484Y133424D01*
Y132768D01*
X20156Y132440D01*
X18516Y134408D02*
Y135064D01*
Y134736D01*
X20484D01*
X20156Y134408D01*
X15016Y130472D02*
X16984D01*
Y131456D01*
X16656Y131784D01*
X16000D01*
X15672Y131456D01*
Y130472D01*
Y131128D02*
X15016Y131784D01*
Y133752D02*
Y132440D01*
X16328Y133752D01*
X16656D01*
X16984Y133424D01*
Y132768D01*
X16656Y132440D01*
Y134408D02*
X16984Y134736D01*
Y135392D01*
X16656Y135720D01*
X15344D01*
X15016Y135392D01*
Y134736D01*
X15344Y134408D01*
X16656D01*
X52460Y65516D02*
Y67484D01*
X51476D01*
X51148Y67156D01*
Y66500D01*
X51476Y66172D01*
X52460D01*
X51804D02*
X51148Y65516D01*
X50492D02*
X49836D01*
X50164D01*
Y67484D01*
X50492Y67156D01*
X48852Y67484D02*
X47540D01*
Y67156D01*
X48852Y65844D01*
Y65516D01*
X52460Y96016D02*
Y97984D01*
X51476D01*
X51148Y97656D01*
Y97000D01*
X51476Y96672D01*
X52460D01*
X51804D02*
X51148Y96016D01*
X50492D02*
X49836D01*
X50164D01*
Y97984D01*
X50492Y97656D01*
X47540Y97984D02*
X48196Y97656D01*
X48852Y97000D01*
Y96344D01*
X48524Y96016D01*
X47868D01*
X47540Y96344D01*
Y96672D01*
X47868Y97000D01*
X48852D01*
X16460Y72016D02*
Y73984D01*
X15476D01*
X15148Y73656D01*
Y73000D01*
X15476Y72672D01*
X16460D01*
X15804D02*
X15148Y72016D01*
X14492D02*
X13836D01*
X14164D01*
Y73984D01*
X14492Y73656D01*
X11868Y72016D02*
Y73984D01*
X12852Y73000D01*
X11540D01*
X99640Y131016D02*
Y132984D01*
X98656D01*
X98328Y132656D01*
Y132000D01*
X98656Y131672D01*
X99640D01*
X98984D02*
X98328Y131016D01*
X97672Y132984D02*
X96360D01*
Y132656D01*
X97672Y131344D01*
Y131016D01*
X100140Y30516D02*
Y32484D01*
X99156D01*
X98828Y32156D01*
Y31500D01*
X99156Y31172D01*
X100140D01*
X99484D02*
X98828Y30516D01*
X97188D02*
Y32484D01*
X98172Y31500D01*
X96860D01*
X91312Y128516D02*
Y130484D01*
X90328D01*
X90000Y130156D01*
Y129500D01*
X90328Y129172D01*
X91312D01*
X90656D02*
X90000Y128516D01*
X89344D02*
X88688D01*
X89016D01*
Y130484D01*
X89344Y130156D01*
X103780Y96484D02*
Y94516D01*
X102468D01*
X100500Y96484D02*
X101812D01*
Y94516D01*
X100500D01*
X101812Y95500D02*
X101156D01*
X99844Y96484D02*
Y94516D01*
X98860D01*
X98532Y94844D01*
Y96156D01*
X98860Y96484D01*
X99844D01*
X97876Y94516D02*
X97220D01*
X97548D01*
Y96484D01*
X97876Y96156D01*
X67812Y74484D02*
X68468D01*
X68140D01*
Y72844D01*
X68468Y72516D01*
X68796D01*
X69124Y72844D01*
X67156Y72516D02*
Y74484D01*
X66172D01*
X65844Y74156D01*
Y73500D01*
X66172Y73172D01*
X67156D01*
X64204Y72516D02*
Y74484D01*
X65188Y73500D01*
X63876D01*
X40812Y84484D02*
X41468D01*
X41140D01*
Y82844D01*
X41468Y82516D01*
X41796D01*
X42124Y82844D01*
X40156Y82516D02*
Y84484D01*
X39172D01*
X38844Y84156D01*
Y83500D01*
X39172Y83172D01*
X40156D01*
X38188Y84156D02*
X37860Y84484D01*
X37204D01*
X36876Y84156D01*
Y83828D01*
X37204Y83500D01*
X37532D01*
X37204D01*
X36876Y83172D01*
Y82844D01*
X37204Y82516D01*
X37860D01*
X38188Y82844D01*
X69828Y117984D02*
X70484D01*
X70156D01*
Y116344D01*
X70484Y116016D01*
X70812D01*
X71140Y116344D01*
X67860Y116016D02*
X69172D01*
X67860Y117328D01*
Y117656D01*
X68188Y117984D01*
X68844D01*
X69172Y117656D01*
X24960Y51484D02*
X24304D01*
X24632D01*
Y49516D01*
X24960D01*
X24304D01*
X22008Y51156D02*
X22336Y51484D01*
X22992D01*
X23320Y51156D01*
Y49844D01*
X22992Y49516D01*
X22336D01*
X22008Y49844D01*
X21352Y51156D02*
X21024Y51484D01*
X20368D01*
X20040Y51156D01*
Y50828D01*
X20368Y50500D01*
X20696D01*
X20368D01*
X20040Y50172D01*
Y49844D01*
X20368Y49516D01*
X21024D01*
X21352Y49844D01*
X78632Y122484D02*
X77976D01*
X78304D01*
Y120516D01*
X78632D01*
X77976D01*
X75680Y122156D02*
X76008Y122484D01*
X76664D01*
X76992Y122156D01*
Y120844D01*
X76664Y120516D01*
X76008D01*
X75680Y120844D01*
X75024Y120516D02*
X74368D01*
X74696D01*
Y122484D01*
X75024Y122156D01*
X85140Y90984D02*
Y89016D01*
X84156D01*
X83828Y89344D01*
Y90656D01*
X84156Y90984D01*
X85140D01*
X83172Y90656D02*
X82844Y90984D01*
X82188D01*
X81860Y90656D01*
Y90328D01*
X82188Y90000D01*
X82516D01*
X82188D01*
X81860Y89672D01*
Y89344D01*
X82188Y89016D01*
X82844D01*
X83172Y89344D01*
X103640Y53984D02*
Y52016D01*
X102656D01*
X102328Y52344D01*
Y53656D01*
X102656Y53984D01*
X103640D01*
X100360Y52016D02*
X101672D01*
X100360Y53328D01*
Y53656D01*
X100688Y53984D01*
X101344D01*
X101672Y53656D01*
X75312Y113484D02*
Y111516D01*
X74328D01*
X74000Y111844D01*
Y113156D01*
X74328Y113484D01*
X75312D01*
X73344Y111516D02*
X72688D01*
X73016D01*
Y113484D01*
X73344Y113156D01*
X12328Y64156D02*
X12656Y64484D01*
X13312D01*
X13640Y64156D01*
Y62844D01*
X13312Y62516D01*
X12656D01*
X12328Y62844D01*
X10360Y64484D02*
X11016Y64156D01*
X11672Y63500D01*
Y62844D01*
X11344Y62516D01*
X10688D01*
X10360Y62844D01*
Y63172D01*
X10688Y63500D01*
X11672D01*
X45148Y79156D02*
X45476Y79484D01*
X46132D01*
X46460Y79156D01*
Y77844D01*
X46132Y77516D01*
X45476D01*
X45148Y77844D01*
X44492Y77516D02*
X43836D01*
X44164D01*
Y79484D01*
X44492Y79156D01*
X41868Y77516D02*
Y79484D01*
X42852Y78500D01*
X41540D01*
X71312Y83156D02*
X71640Y83484D01*
X72296D01*
X72624Y83156D01*
Y81844D01*
X72296Y81516D01*
X71640D01*
X71312Y81844D01*
X69344Y81516D02*
X70656D01*
X69344Y82828D01*
Y83156D01*
X69672Y83484D01*
X70328D01*
X70656Y83156D01*
X68688D02*
X68360Y83484D01*
X67704D01*
X67376Y83156D01*
Y81844D01*
X67704Y81516D01*
X68360D01*
X68688Y81844D01*
Y83156D01*
X10828Y32656D02*
X11156Y32984D01*
X11812D01*
X12140Y32656D01*
Y31344D01*
X11812Y31016D01*
X11156D01*
X10828Y31344D01*
X10172Y32656D02*
X9844Y32984D01*
X9188D01*
X8860Y32656D01*
Y32328D01*
X9188Y32000D01*
X8860Y31672D01*
Y31344D01*
X9188Y31016D01*
X9844D01*
X10172Y31344D01*
Y31672D01*
X9844Y32000D01*
X10172Y32328D01*
Y32656D01*
X9844Y32000D02*
X9188D01*
X24828Y29156D02*
X25156Y29484D01*
X25812D01*
X26140Y29156D01*
Y27844D01*
X25812Y27516D01*
X25156D01*
X24828Y27844D01*
X24172Y29484D02*
X22860D01*
Y29156D01*
X24172Y27844D01*
Y27516D01*
X89328Y32156D02*
X89656Y32484D01*
X90312D01*
X90640Y32156D01*
Y30844D01*
X90312Y30516D01*
X89656D01*
X89328Y30844D01*
X87360Y30516D02*
X88672D01*
X87360Y31828D01*
Y32156D01*
X87688Y32484D01*
X88344D01*
X88672Y32156D01*
X88500Y99656D02*
X88828Y99984D01*
X89484D01*
X89812Y99656D01*
Y98344D01*
X89484Y98016D01*
X88828D01*
X88500Y98344D01*
X87844Y98016D02*
X87188D01*
X87516D01*
Y99984D01*
X87844Y99656D01*
D72*
X85256Y99000D02*
G03*
X85256Y99000I-2756J0D01*
G01*
X6256Y60500D02*
G03*
X6256Y60500I-2756J0D01*
G01*
Y68500D02*
G03*
X6256Y68500I-2756J0D01*
G01*
X62756Y89000D02*
G03*
X62756Y89000I-2756J0D01*
G01*
X48756Y54000D02*
G03*
X48756Y54000I-2756J0D01*
G01*
X80756Y132500D02*
G03*
X80756Y132500I-2756J0D01*
G01*
X66756Y95500D02*
G03*
X66756Y95500I-2756J0D01*
G01*
D73*
X66686Y100014D02*
X69310D01*
X67998Y101326D02*
Y98702D01*
M02*
